%TF.GenerationSoftware,KiCad,Pcbnew,8.0.8*%
%TF.CreationDate,2025-05-01T19:10:25-04:00*%
%TF.ProjectId,SolderSub,536f6c64-6572-4537-9562-2e6b69636164,rev?*%
%TF.SameCoordinates,Original*%
%TF.FileFunction,Legend,Bot*%
%TF.FilePolarity,Positive*%
%FSLAX46Y46*%
G04 Gerber Fmt 4.6, Leading zero omitted, Abs format (unit mm)*
G04 Created by KiCad (PCBNEW 8.0.8) date 2025-05-01 19:10:25*
%MOMM*%
%LPD*%
G01*
G04 APERTURE LIST*
%ADD10C,0.000000*%
%ADD11C,0.264583*%
%ADD12C,0.370416*%
%ADD13C,0.793749*%
G04 APERTURE END LIST*
D10*
G36*
X96502946Y-109329794D02*
G01*
X96611221Y-109341652D01*
X96715726Y-109360935D01*
X96815915Y-109387249D01*
X96911239Y-109420201D01*
X97001149Y-109459398D01*
X97085098Y-109504446D01*
X97162537Y-109554952D01*
X97232918Y-109610523D01*
X97295694Y-109670764D01*
X97324058Y-109702514D01*
X97350316Y-109735284D01*
X97374398Y-109769026D01*
X97396236Y-109803689D01*
X97415761Y-109839225D01*
X97432905Y-109875584D01*
X97447600Y-109912719D01*
X97459776Y-109950578D01*
X97469366Y-109989114D01*
X97476301Y-110028276D01*
X97480512Y-110068017D01*
X97481931Y-110108286D01*
X97480512Y-110148555D01*
X97476301Y-110188295D01*
X97469366Y-110227457D01*
X97459776Y-110265993D01*
X97447600Y-110303852D01*
X97432905Y-110340986D01*
X97415761Y-110377346D01*
X97396236Y-110412882D01*
X97374398Y-110447545D01*
X97350316Y-110481286D01*
X97324058Y-110514056D01*
X97295694Y-110545806D01*
X97265291Y-110576486D01*
X97232918Y-110606048D01*
X97198644Y-110634442D01*
X97162537Y-110661619D01*
X97124665Y-110687529D01*
X97085098Y-110712125D01*
X97043903Y-110735355D01*
X97001149Y-110757173D01*
X96956905Y-110777527D01*
X96911239Y-110796369D01*
X96864219Y-110813651D01*
X96815915Y-110829321D01*
X96766395Y-110843333D01*
X96715726Y-110855636D01*
X96663979Y-110866180D01*
X96611221Y-110874918D01*
X96557520Y-110881800D01*
X96502946Y-110886776D01*
X96447567Y-110889798D01*
X96391451Y-110890817D01*
X96279956Y-110886776D01*
X96171681Y-110874918D01*
X96067175Y-110855636D01*
X95966987Y-110829321D01*
X95871663Y-110796369D01*
X95781753Y-110757173D01*
X95697804Y-110712125D01*
X95620365Y-110661619D01*
X95549983Y-110606048D01*
X95487208Y-110545806D01*
X95458843Y-110514056D01*
X95432586Y-110481286D01*
X95408504Y-110447545D01*
X95386666Y-110412882D01*
X95367141Y-110377346D01*
X95349997Y-110340986D01*
X95335302Y-110303852D01*
X95323125Y-110265993D01*
X95313536Y-110227457D01*
X95306601Y-110188295D01*
X95302390Y-110148555D01*
X95300971Y-110108286D01*
X95302390Y-110068017D01*
X95306601Y-110028276D01*
X95313536Y-109989114D01*
X95323125Y-109950578D01*
X95335302Y-109912719D01*
X95349997Y-109875584D01*
X95367141Y-109839225D01*
X95386666Y-109803689D01*
X95408504Y-109769026D01*
X95432586Y-109735284D01*
X95458843Y-109702514D01*
X95487208Y-109670764D01*
X95517611Y-109640084D01*
X95549983Y-109610523D01*
X95584258Y-109582129D01*
X95620365Y-109554952D01*
X95658237Y-109529041D01*
X95697804Y-109504446D01*
X95738999Y-109481215D01*
X95781753Y-109459398D01*
X95825997Y-109439044D01*
X95871663Y-109420201D01*
X95918683Y-109402920D01*
X95966987Y-109387249D01*
X96016507Y-109373238D01*
X96067175Y-109360935D01*
X96118923Y-109350390D01*
X96171681Y-109341652D01*
X96225381Y-109334770D01*
X96279956Y-109329794D01*
X96335335Y-109326772D01*
X96391451Y-109325754D01*
X96502946Y-109329794D01*
G37*
D11*
X92759002Y-111475749D02*
X92816507Y-111438610D01*
X92607396Y-111581664D02*
X92759002Y-111475749D01*
X92506107Y-111657833D02*
X92607396Y-111581664D01*
X92393056Y-111748102D02*
X92506107Y-111657833D01*
X92272163Y-111851438D02*
X92393056Y-111748102D01*
X92147350Y-111966811D02*
X92272163Y-111851438D01*
X92022536Y-112093188D02*
X92147350Y-111966811D01*
X91901644Y-112229539D02*
X92022536Y-112093188D01*
X91788593Y-112374830D02*
X91901644Y-112229539D01*
X91736233Y-112450507D02*
X91788593Y-112374830D01*
X91687304Y-112528032D02*
X91736233Y-112450507D01*
X91642296Y-112607277D02*
X91687304Y-112528032D01*
X91601699Y-112688112D02*
X91642296Y-112607277D01*
X91566003Y-112770409D02*
X91601699Y-112688112D01*
X91535698Y-112854039D02*
X91566003Y-112770409D01*
X91511275Y-112938872D02*
X91535698Y-112854039D01*
X91493222Y-113024781D02*
X91511275Y-112938872D01*
X91482032Y-113111635D02*
X91493222Y-113024781D01*
X91478192Y-113199307D02*
X91482032Y-113111635D01*
X91482346Y-113286392D02*
X91478192Y-113199307D01*
X91494441Y-113371685D02*
X91482346Y-113286392D01*
X91513925Y-113455341D02*
X91494441Y-113371685D01*
X91540247Y-113537513D02*
X91513925Y-113455341D01*
X91572857Y-113618355D02*
X91540247Y-113537513D01*
X91611204Y-113698021D02*
X91572857Y-113618355D01*
X91654735Y-113776664D02*
X91611204Y-113698021D01*
X91702901Y-113854437D02*
X91654735Y-113776664D01*
X91810932Y-114007992D02*
X91702901Y-113854437D01*
X91930888Y-114159915D02*
X91810932Y-114007992D01*
X92188942Y-114463783D02*
X91930888Y-114159915D01*
X92318224Y-114618188D02*
X92188942Y-114463783D01*
X92441797Y-114775879D02*
X92318224Y-114618188D01*
X92555254Y-114938087D02*
X92441797Y-114775879D01*
X92606812Y-115021268D02*
X92555254Y-114938087D01*
X92654187Y-115106040D02*
X92606812Y-115021268D01*
X92696829Y-115192555D02*
X92654187Y-115106040D01*
X92734187Y-115280968D02*
X92696829Y-115192555D01*
X92765709Y-115371433D02*
X92734187Y-115280968D01*
X92790846Y-115464102D02*
X92765709Y-115371433D01*
X92809045Y-115559130D02*
X92790846Y-115464102D01*
X92819755Y-115656670D02*
X92809045Y-115559130D01*
X92822426Y-115756876D02*
X92819755Y-115656670D01*
X92816507Y-115859902D02*
X92822426Y-115756876D01*
X92804367Y-115945538D02*
X92816507Y-115859902D01*
X92785668Y-116027602D02*
X92804367Y-115945538D01*
X92760875Y-116106334D02*
X92785668Y-116027602D01*
X92730452Y-116181971D02*
X92760875Y-116106334D01*
X92694863Y-116254752D02*
X92730452Y-116181971D01*
X92654574Y-116324916D02*
X92694863Y-116254752D01*
X92610048Y-116392700D02*
X92654574Y-116324916D01*
X92561750Y-116458345D02*
X92610048Y-116392700D01*
X92510143Y-116522087D02*
X92561750Y-116458345D01*
X92455693Y-116584167D02*
X92510143Y-116522087D01*
X92340119Y-116704290D02*
X92455693Y-116584167D01*
X92218743Y-116820621D02*
X92340119Y-116704290D01*
X92095279Y-116935071D02*
X92218743Y-116820621D01*
X91973443Y-117049545D02*
X92095279Y-116935071D01*
X91856948Y-117165953D02*
X91973443Y-117049545D01*
X91801865Y-117225479D02*
X91856948Y-117165953D01*
X91749510Y-117286203D02*
X91801865Y-117225479D01*
X91700349Y-117348365D02*
X91749510Y-117286203D01*
X91654844Y-117412203D02*
X91700349Y-117348365D01*
X91613461Y-117477956D02*
X91654844Y-117412203D01*
X91576665Y-117545861D02*
X91613461Y-117477956D01*
X91544918Y-117616158D02*
X91576665Y-117545861D01*
X91518686Y-117689086D02*
X91544918Y-117616158D01*
X91498433Y-117764881D02*
X91518686Y-117689086D01*
X91484624Y-117843784D02*
X91498433Y-117764881D01*
X91477722Y-117926033D02*
X91484624Y-117843784D01*
X91478192Y-118011866D02*
X91477722Y-117926033D01*
X91485784Y-118093813D02*
X91478192Y-118011866D01*
X91500251Y-118176816D02*
X91485784Y-118093813D01*
X91521126Y-118260635D02*
X91500251Y-118176816D01*
X91547944Y-118345029D02*
X91521126Y-118260635D01*
X91580236Y-118429760D02*
X91547944Y-118345029D01*
X91617537Y-118514587D02*
X91580236Y-118429760D01*
X91659380Y-118599270D02*
X91617537Y-118514587D01*
X91705298Y-118683570D02*
X91659380Y-118599270D01*
X91754824Y-118767247D02*
X91705298Y-118683570D01*
X91807492Y-118850061D02*
X91754824Y-118767247D01*
X91920387Y-119012140D02*
X91807492Y-118850061D01*
X92040249Y-119167888D02*
X91920387Y-119012140D01*
X92163344Y-119315389D02*
X92040249Y-119167888D01*
X92285940Y-119452721D02*
X92163344Y-119315389D01*
X92404302Y-119577968D02*
X92285940Y-119452721D01*
X92514698Y-119689210D02*
X92404302Y-119577968D01*
X92613393Y-119784528D02*
X92514698Y-119689210D01*
X92760751Y-119919720D02*
X92613393Y-119784528D01*
X92816507Y-119968195D02*
X92760751Y-119919720D01*
D10*
G36*
X96502946Y-119189704D02*
G01*
X96611221Y-119201562D01*
X96715726Y-119220845D01*
X96815915Y-119247159D01*
X96911239Y-119280111D01*
X97001149Y-119319308D01*
X97085098Y-119364356D01*
X97162537Y-119414862D01*
X97232918Y-119470432D01*
X97295694Y-119530674D01*
X97324058Y-119562424D01*
X97350316Y-119595194D01*
X97374398Y-119628935D01*
X97396236Y-119663599D01*
X97415761Y-119699135D01*
X97432905Y-119735494D01*
X97447600Y-119772628D01*
X97459776Y-119810488D01*
X97469366Y-119849023D01*
X97476301Y-119888186D01*
X97480512Y-119927926D01*
X97481931Y-119968195D01*
X97480512Y-120008464D01*
X97476301Y-120048205D01*
X97469366Y-120087367D01*
X97459776Y-120125902D01*
X97447600Y-120163762D01*
X97432905Y-120200896D01*
X97415761Y-120237255D01*
X97396236Y-120272791D01*
X97374398Y-120307455D01*
X97350316Y-120341196D01*
X97324058Y-120373966D01*
X97295694Y-120405715D01*
X97265291Y-120436396D01*
X97232918Y-120465957D01*
X97198644Y-120494351D01*
X97162537Y-120521528D01*
X97124665Y-120547438D01*
X97085098Y-120572034D01*
X97043903Y-120595265D01*
X97001149Y-120617082D01*
X96956905Y-120637436D01*
X96911239Y-120656278D01*
X96864219Y-120673560D01*
X96815915Y-120689231D01*
X96766395Y-120703242D01*
X96715726Y-120715545D01*
X96663979Y-120726090D01*
X96611221Y-120734827D01*
X96557520Y-120741709D01*
X96502946Y-120746686D01*
X96447567Y-120749707D01*
X96391451Y-120750726D01*
X96279956Y-120746686D01*
X96171681Y-120734827D01*
X96067175Y-120715545D01*
X95966987Y-120689231D01*
X95871663Y-120656278D01*
X95781753Y-120617082D01*
X95697804Y-120572034D01*
X95620365Y-120521528D01*
X95549983Y-120465957D01*
X95487208Y-120405715D01*
X95458843Y-120373966D01*
X95432586Y-120341196D01*
X95408504Y-120307455D01*
X95386666Y-120272791D01*
X95367141Y-120237255D01*
X95349997Y-120200896D01*
X95335302Y-120163762D01*
X95323125Y-120125902D01*
X95313536Y-120087367D01*
X95306601Y-120048205D01*
X95302390Y-120008464D01*
X95300971Y-119968195D01*
X95302390Y-119927926D01*
X95306601Y-119888186D01*
X95313536Y-119849023D01*
X95323125Y-119810488D01*
X95335302Y-119772628D01*
X95349997Y-119735494D01*
X95367141Y-119699135D01*
X95386666Y-119663599D01*
X95408504Y-119628935D01*
X95432586Y-119595194D01*
X95458843Y-119562424D01*
X95487208Y-119530674D01*
X95517611Y-119499994D01*
X95549983Y-119470432D01*
X95584258Y-119442039D01*
X95620365Y-119414862D01*
X95658237Y-119388951D01*
X95697804Y-119364356D01*
X95738999Y-119341125D01*
X95781753Y-119319308D01*
X95825997Y-119298953D01*
X95871663Y-119280111D01*
X95918683Y-119262830D01*
X95966987Y-119247159D01*
X96016507Y-119233147D01*
X96067175Y-119220845D01*
X96118923Y-119210300D01*
X96171681Y-119201562D01*
X96225381Y-119194680D01*
X96279956Y-119189704D01*
X96335335Y-119186682D01*
X96391451Y-119185664D01*
X96502946Y-119189704D01*
G37*
D12*
X74451011Y-125840230D02*
X73540927Y-125758918D01*
X75455284Y-125911379D02*
X74451011Y-125840230D01*
X76707194Y-125975751D02*
X75455284Y-125911379D01*
X78117855Y-126013019D02*
X76707194Y-125975751D01*
X79598378Y-126002855D02*
X78117855Y-126013019D01*
X80337061Y-125973633D02*
X79598378Y-126002855D01*
X81059876Y-125924931D02*
X80337061Y-125973633D01*
X81755713Y-125854206D02*
X81059876Y-125924931D01*
X82413462Y-125758918D02*
X81755713Y-125854206D01*
X82852231Y-125676289D02*
X82413462Y-125758918D01*
X83308976Y-125576502D02*
X82852231Y-125676289D01*
X83777310Y-125462659D02*
X83308976Y-125576502D01*
X84250847Y-125337864D02*
X83777310Y-125462659D01*
X84723201Y-125205220D02*
X84250847Y-125337864D01*
X85187986Y-125067830D02*
X84723201Y-125205220D01*
X86069302Y-124791224D02*
X85187986Y-125067830D01*
X86843704Y-124532872D02*
X86069302Y-124791224D01*
X87460104Y-124317599D02*
X86843704Y-124532872D01*
X88014531Y-124115591D02*
X87460104Y-124317599D01*
X89600708Y-128263041D02*
X88014531Y-124115591D01*
X94408716Y-125172019D02*
X89600708Y-128263041D01*
X97680184Y-130102000D02*
X94408716Y-125172019D01*
X101553366Y-124937281D02*
X97680184Y-130102000D01*
X107841468Y-124115591D02*
X101553366Y-124937281D01*
X101553366Y-118246604D02*
X107841468Y-124115591D01*
X101553366Y-113316676D02*
X101553366Y-118246604D01*
X106651855Y-107017317D02*
X101553366Y-113316676D01*
X100158536Y-107017317D02*
X106651855Y-107017317D01*
X97680184Y-101578696D02*
X100158536Y-107017317D01*
X94408716Y-105060962D02*
X97680184Y-101578696D01*
X92822592Y-101578696D02*
X94408716Y-105060962D01*
X89600708Y-107017317D02*
X92822592Y-101578696D01*
X88006376Y-106799149D02*
X89600708Y-107017317D01*
X81604578Y-106000000D02*
X88006376Y-106799149D01*
X81121431Y-105953968D02*
X81604578Y-106000000D01*
X80549755Y-105919803D02*
X81121431Y-105953968D01*
X79206887Y-105882159D02*
X80549755Y-105919803D01*
X77708103Y-105877249D02*
X79206887Y-105882159D01*
X76185533Y-105895253D02*
X77708103Y-105877249D01*
X73597557Y-105960720D02*
X76185533Y-105895253D01*
X72500000Y-106000000D02*
X73597557Y-105960720D01*
D13*
X102570570Y-95617766D02*
X102617598Y-95621342D01*
X102663943Y-95627231D01*
X102709546Y-95635375D01*
X102754348Y-95645715D01*
X102798292Y-95658194D01*
X102841320Y-95672753D01*
X102883373Y-95689334D01*
X102924393Y-95707879D01*
X102964322Y-95728329D01*
X103003102Y-95750627D01*
X103040674Y-95774714D01*
X103076981Y-95800533D01*
X103111964Y-95828024D01*
X103145565Y-95857130D01*
X103177726Y-95887792D01*
X103208388Y-95919953D01*
X103237494Y-95953554D01*
X103264985Y-95988537D01*
X103290804Y-96024844D01*
X103314891Y-96062416D01*
X103337189Y-96101196D01*
X103357639Y-96141125D01*
X103376184Y-96182145D01*
X103392765Y-96224198D01*
X103407324Y-96267226D01*
X103419802Y-96311170D01*
X103430143Y-96355973D01*
X103438287Y-96401576D01*
X103444176Y-96447920D01*
X103447752Y-96494949D01*
X103448957Y-96542602D01*
X103447752Y-96590256D01*
X103444176Y-96637285D01*
X103438287Y-96683630D01*
X103430143Y-96729232D01*
X103419802Y-96774035D01*
X103407324Y-96817979D01*
X103392765Y-96861007D01*
X103376184Y-96903060D01*
X103357639Y-96944080D01*
X103337189Y-96984009D01*
X103314891Y-97022789D01*
X103290804Y-97060361D01*
X103264985Y-97096668D01*
X103237494Y-97131651D01*
X103208388Y-97165252D01*
X103177726Y-97197413D01*
X103145565Y-97228075D01*
X103111964Y-97257181D01*
X103076981Y-97284672D01*
X103040674Y-97310491D01*
X103003102Y-97334578D01*
X102964322Y-97356876D01*
X102924393Y-97377326D01*
X102883373Y-97395871D01*
X102841320Y-97412452D01*
X102798292Y-97427011D01*
X102754348Y-97439490D01*
X102709546Y-97449830D01*
X102663943Y-97457974D01*
X102617598Y-97463863D01*
X102570570Y-97467439D01*
X102522916Y-97468644D01*
X102475262Y-97467439D01*
X102428233Y-97463863D01*
X102381889Y-97457974D01*
X102336286Y-97449830D01*
X102291483Y-97439490D01*
X102247539Y-97427011D01*
X102204511Y-97412452D01*
X102162458Y-97395871D01*
X102121438Y-97377326D01*
X102081509Y-97356876D01*
X102042729Y-97334578D01*
X102005156Y-97310491D01*
X101968850Y-97284672D01*
X101933867Y-97257181D01*
X101900265Y-97228075D01*
X101868105Y-97197413D01*
X101837442Y-97165252D01*
X101808336Y-97131651D01*
X101780845Y-97096668D01*
X101755027Y-97060361D01*
X101730940Y-97022789D01*
X101708642Y-96984009D01*
X101688191Y-96944080D01*
X101669646Y-96903060D01*
X101653065Y-96861007D01*
X101638506Y-96817979D01*
X101626028Y-96774035D01*
X101615687Y-96729232D01*
X101607544Y-96683630D01*
X101601655Y-96637285D01*
X101598078Y-96590256D01*
X101596873Y-96542602D01*
X101598078Y-96494949D01*
X101601655Y-96447920D01*
X101607544Y-96401576D01*
X101615687Y-96355973D01*
X101626028Y-96311170D01*
X101638506Y-96267226D01*
X101653065Y-96224198D01*
X101669646Y-96182145D01*
X101688191Y-96141125D01*
X101708642Y-96101196D01*
X101730940Y-96062416D01*
X101755027Y-96024844D01*
X101780845Y-95988537D01*
X101808336Y-95953554D01*
X101837442Y-95919953D01*
X101868105Y-95887792D01*
X101900265Y-95857130D01*
X101933867Y-95828024D01*
X101968850Y-95800533D01*
X102005156Y-95774714D01*
X102042729Y-95750627D01*
X102081509Y-95728329D01*
X102121438Y-95707879D01*
X102162458Y-95689334D01*
X102204511Y-95672753D01*
X102247539Y-95658194D01*
X102291483Y-95645715D01*
X102336286Y-95635375D01*
X102381889Y-95627231D01*
X102428233Y-95621342D01*
X102475262Y-95617766D01*
X102522916Y-95616561D01*
X102570570Y-95617766D01*
D10*
G36*
X108370990Y-96014124D02*
G01*
X108397872Y-96016168D01*
X108424362Y-96019533D01*
X108450427Y-96024186D01*
X108476034Y-96030095D01*
X108501149Y-96037225D01*
X108525740Y-96045545D01*
X108549772Y-96055019D01*
X108573214Y-96065616D01*
X108596031Y-96077302D01*
X108618191Y-96090043D01*
X108639661Y-96103807D01*
X108660406Y-96118560D01*
X108680395Y-96134269D01*
X108699593Y-96150901D01*
X108717968Y-96168422D01*
X108735487Y-96186800D01*
X108752116Y-96206000D01*
X108767822Y-96225990D01*
X108782572Y-96246737D01*
X108796332Y-96268207D01*
X108809070Y-96290367D01*
X108820753Y-96313183D01*
X108831346Y-96336624D01*
X108840818Y-96360654D01*
X108849134Y-96385241D01*
X108856262Y-96410353D01*
X108862168Y-96435955D01*
X108866820Y-96462014D01*
X108870184Y-96488497D01*
X108872226Y-96515371D01*
X108872915Y-96542602D01*
X108872226Y-96569834D01*
X108870184Y-96596708D01*
X108866820Y-96623191D01*
X108862168Y-96649250D01*
X108856262Y-96674852D01*
X108849134Y-96699964D01*
X108840818Y-96724551D01*
X108831346Y-96748582D01*
X108820753Y-96772022D01*
X108809070Y-96794839D01*
X108796332Y-96816998D01*
X108782572Y-96838468D01*
X108767822Y-96859215D01*
X108752116Y-96879205D01*
X108735487Y-96898406D01*
X108717968Y-96916783D01*
X108699593Y-96934304D01*
X108680395Y-96950936D01*
X108660406Y-96966645D01*
X108639661Y-96981398D01*
X108618191Y-96995162D01*
X108596031Y-97007903D01*
X108573214Y-97019589D01*
X108549772Y-97030186D01*
X108525740Y-97039660D01*
X108501149Y-97047980D01*
X108476034Y-97055110D01*
X108450427Y-97061019D01*
X108424362Y-97065672D01*
X108397872Y-97069037D01*
X108370990Y-97071081D01*
X108343749Y-97071769D01*
X101729165Y-97071769D01*
X101729165Y-96013436D01*
X108343749Y-96013436D01*
X108370990Y-96014124D01*
G37*
G36*
X88500000Y-100524687D02*
G01*
X81885417Y-100524687D01*
X81858186Y-100523999D01*
X81831312Y-100521955D01*
X81804830Y-100518590D01*
X81778771Y-100513937D01*
X81753170Y-100508028D01*
X81728059Y-100500898D01*
X81703471Y-100492578D01*
X81679441Y-100483104D01*
X81656001Y-100472507D01*
X81633184Y-100460821D01*
X81611025Y-100448080D01*
X81589555Y-100434316D01*
X81568808Y-100419563D01*
X81548818Y-100403854D01*
X81529617Y-100387222D01*
X81511239Y-100369701D01*
X81493718Y-100351324D01*
X81477086Y-100332123D01*
X81461377Y-100312133D01*
X81446623Y-100291386D01*
X81432859Y-100269916D01*
X81420118Y-100247757D01*
X81408432Y-100224940D01*
X81397835Y-100201500D01*
X81388360Y-100177469D01*
X81380040Y-100152882D01*
X81372910Y-100127770D01*
X81367001Y-100102169D01*
X81362347Y-100076110D01*
X81358982Y-100049626D01*
X81356939Y-100022753D01*
X81356250Y-99995521D01*
X81356939Y-99968289D01*
X81358982Y-99941416D01*
X81362347Y-99914932D01*
X81367001Y-99888873D01*
X81372910Y-99863271D01*
X81380040Y-99838160D01*
X81388360Y-99813573D01*
X81397835Y-99789542D01*
X81408432Y-99766102D01*
X81420118Y-99743285D01*
X81432859Y-99721125D01*
X81446623Y-99699655D01*
X81461377Y-99678909D01*
X81477086Y-99658919D01*
X81493718Y-99639718D01*
X81511239Y-99621341D01*
X81529617Y-99603819D01*
X81548818Y-99587188D01*
X81568808Y-99571478D01*
X81589555Y-99556725D01*
X81611025Y-99542961D01*
X81633184Y-99530220D01*
X81656001Y-99518534D01*
X81679441Y-99507937D01*
X81703471Y-99498463D01*
X81728059Y-99490144D01*
X81753170Y-99483013D01*
X81778771Y-99477104D01*
X81804830Y-99472451D01*
X81831312Y-99469086D01*
X81858186Y-99467042D01*
X81885417Y-99466354D01*
X88500000Y-99466354D01*
X88500000Y-100524687D01*
G37*
G36*
X88500000Y-93500000D02*
G01*
X81885417Y-93500000D01*
X81858186Y-93499312D01*
X81831312Y-93497268D01*
X81804830Y-93493903D01*
X81778771Y-93489250D01*
X81753170Y-93483341D01*
X81728059Y-93476211D01*
X81703471Y-93467891D01*
X81679441Y-93458417D01*
X81656001Y-93447820D01*
X81633184Y-93436134D01*
X81611025Y-93423393D01*
X81589555Y-93409629D01*
X81568808Y-93394876D01*
X81548818Y-93379167D01*
X81529617Y-93362535D01*
X81511239Y-93345014D01*
X81493718Y-93326636D01*
X81477086Y-93307436D01*
X81461377Y-93287446D01*
X81446623Y-93266699D01*
X81432859Y-93245229D01*
X81420118Y-93223069D01*
X81408432Y-93200253D01*
X81397835Y-93176812D01*
X81388360Y-93152782D01*
X81380040Y-93128194D01*
X81372910Y-93103083D01*
X81367001Y-93077481D01*
X81362347Y-93051422D01*
X81358982Y-93024939D01*
X81356939Y-92998065D01*
X81356250Y-92970833D01*
X81356939Y-92943602D01*
X81358982Y-92916728D01*
X81362347Y-92890245D01*
X81367001Y-92864186D01*
X81372910Y-92838584D01*
X81380040Y-92813473D01*
X81388360Y-92788885D01*
X81397835Y-92764855D01*
X81408432Y-92741414D01*
X81420118Y-92718598D01*
X81432859Y-92696438D01*
X81446623Y-92674968D01*
X81461377Y-92654221D01*
X81477086Y-92634231D01*
X81493718Y-92615031D01*
X81511239Y-92596653D01*
X81529617Y-92579132D01*
X81548818Y-92562500D01*
X81568808Y-92546791D01*
X81589555Y-92532038D01*
X81611025Y-92518274D01*
X81633184Y-92505533D01*
X81656001Y-92493847D01*
X81679441Y-92483250D01*
X81703471Y-92473776D01*
X81728059Y-92465457D01*
X81753170Y-92458326D01*
X81778771Y-92452417D01*
X81804830Y-92447764D01*
X81831312Y-92444399D01*
X81858186Y-92442356D01*
X81885417Y-92441667D01*
X88500000Y-92441667D01*
X88500000Y-93500000D01*
G37*
G36*
X95114582Y-90060311D02*
G01*
X89029166Y-90060311D01*
X89008744Y-90060828D01*
X88988589Y-90062360D01*
X88968728Y-90064884D01*
X88949184Y-90068374D01*
X88929983Y-90072806D01*
X88911151Y-90078154D01*
X88892710Y-90084393D01*
X88874688Y-90091500D01*
X88857108Y-90099447D01*
X88839995Y-90108212D01*
X88823375Y-90117768D01*
X88807273Y-90128091D01*
X88791713Y-90139156D01*
X88776720Y-90150938D01*
X88762319Y-90163412D01*
X88748536Y-90176553D01*
X88735395Y-90190336D01*
X88722921Y-90204737D01*
X88711139Y-90219729D01*
X88700073Y-90235289D01*
X88689750Y-90251392D01*
X88680194Y-90268012D01*
X88671429Y-90285124D01*
X88663481Y-90302704D01*
X88656375Y-90320727D01*
X88650135Y-90339168D01*
X88644787Y-90358001D01*
X88640355Y-90377202D01*
X88636865Y-90396746D01*
X88634341Y-90416608D01*
X88632808Y-90436763D01*
X88632292Y-90457186D01*
X88632292Y-102628019D01*
X88632808Y-102648441D01*
X88634341Y-102668596D01*
X88636865Y-102688457D01*
X88640355Y-102708001D01*
X88644787Y-102727202D01*
X88650135Y-102746035D01*
X88656375Y-102764475D01*
X88663481Y-102782498D01*
X88671429Y-102800078D01*
X88680194Y-102817190D01*
X88689750Y-102833810D01*
X88700073Y-102849912D01*
X88711139Y-102865473D01*
X88722921Y-102880465D01*
X88735395Y-102894866D01*
X88748536Y-102908649D01*
X88762319Y-102921791D01*
X88776720Y-102934265D01*
X88791713Y-102946047D01*
X88807273Y-102957112D01*
X88823375Y-102967436D01*
X88839995Y-102976992D01*
X88857108Y-102985757D01*
X88874688Y-102993705D01*
X88892710Y-103000811D01*
X88911151Y-103007051D01*
X88929983Y-103012399D01*
X88949184Y-103016831D01*
X88968728Y-103020321D01*
X88988589Y-103022845D01*
X89008744Y-103024378D01*
X89029166Y-103024894D01*
X95114582Y-103024894D01*
X95114582Y-103289478D01*
X89029166Y-103289478D01*
X88995128Y-103288617D01*
X88961537Y-103286063D01*
X88928434Y-103281856D01*
X88895860Y-103276039D01*
X88863859Y-103268653D01*
X88832470Y-103259740D01*
X88801736Y-103249340D01*
X88771698Y-103237496D01*
X88742398Y-103224250D01*
X88713877Y-103209642D01*
X88686178Y-103193715D01*
X88659340Y-103176510D01*
X88633407Y-103158068D01*
X88608419Y-103138431D01*
X88584418Y-103117641D01*
X88561446Y-103095739D01*
X88539544Y-103072767D01*
X88518754Y-103048766D01*
X88499117Y-103023779D01*
X88480676Y-102997845D01*
X88463470Y-102971008D01*
X88447543Y-102943308D01*
X88432935Y-102914787D01*
X88419689Y-102885487D01*
X88407845Y-102855449D01*
X88397446Y-102824715D01*
X88388533Y-102793326D01*
X88381147Y-102761325D01*
X88375329Y-102728752D01*
X88371123Y-102695648D01*
X88368569Y-102662057D01*
X88367708Y-102628019D01*
X88367708Y-90457186D01*
X88368569Y-90423148D01*
X88371123Y-90389556D01*
X88375329Y-90356453D01*
X88381147Y-90323880D01*
X88388533Y-90291878D01*
X88397446Y-90260489D01*
X88407845Y-90229755D01*
X88419689Y-90199717D01*
X88432935Y-90170417D01*
X88447543Y-90141896D01*
X88463470Y-90114196D01*
X88480676Y-90087359D01*
X88499117Y-90061425D01*
X88518754Y-90036438D01*
X88539544Y-90012437D01*
X88561446Y-89989465D01*
X88584418Y-89967563D01*
X88608419Y-89946773D01*
X88633407Y-89927136D01*
X88659340Y-89908695D01*
X88686178Y-89891490D01*
X88713877Y-89875563D01*
X88742398Y-89860955D01*
X88771698Y-89847709D01*
X88801736Y-89835865D01*
X88832470Y-89825466D01*
X88863859Y-89816552D01*
X88895860Y-89809167D01*
X88928434Y-89803349D01*
X88961537Y-89799143D01*
X88995128Y-89796589D01*
X89029166Y-89795728D01*
X95114582Y-89795728D01*
X95114582Y-90060311D01*
G37*
G36*
X95114582Y-103157186D02*
G01*
X89029166Y-103157186D01*
X89001935Y-103156497D01*
X88975061Y-103154454D01*
X88948578Y-103151089D01*
X88922518Y-103146435D01*
X88896917Y-103140527D01*
X88871805Y-103133396D01*
X88847218Y-103125077D01*
X88823187Y-103115602D01*
X88799747Y-103105006D01*
X88776930Y-103093320D01*
X88754770Y-103080578D01*
X88733301Y-103066814D01*
X88712554Y-103052061D01*
X88692564Y-103036352D01*
X88673363Y-103019720D01*
X88654986Y-103002199D01*
X88637465Y-102983822D01*
X88620833Y-102964621D01*
X88605124Y-102944631D01*
X88590371Y-102923884D01*
X88576607Y-102902414D01*
X88563866Y-102880255D01*
X88552180Y-102857438D01*
X88541583Y-102833998D01*
X88532108Y-102809967D01*
X88523789Y-102785380D01*
X88516659Y-102760268D01*
X88510750Y-102734667D01*
X88506097Y-102708607D01*
X88502732Y-102682124D01*
X88500688Y-102655250D01*
X88500000Y-102628019D01*
X88500000Y-90457186D01*
X88500688Y-90429955D01*
X88502732Y-90403082D01*
X88506097Y-90376599D01*
X88510750Y-90350541D01*
X88516659Y-90324939D01*
X88523789Y-90299828D01*
X88532108Y-90275241D01*
X88541583Y-90251211D01*
X88552180Y-90227771D01*
X88563866Y-90204954D01*
X88576607Y-90182794D01*
X88590371Y-90161324D01*
X88605124Y-90140577D01*
X88620833Y-90120587D01*
X88637465Y-90101387D01*
X88654986Y-90083009D01*
X88673363Y-90065488D01*
X88692564Y-90048856D01*
X88712554Y-90033146D01*
X88733301Y-90018393D01*
X88754770Y-90004629D01*
X88776930Y-89991887D01*
X88799747Y-89980201D01*
X88823187Y-89969604D01*
X88847218Y-89960129D01*
X88871805Y-89951810D01*
X88896917Y-89944679D01*
X88922518Y-89938770D01*
X88948578Y-89934117D01*
X88975061Y-89930752D01*
X89001935Y-89928708D01*
X89029166Y-89928020D01*
X95114582Y-89928020D01*
X95114582Y-103157186D01*
G37*
G36*
X95454967Y-89936627D02*
G01*
X95790884Y-89962170D01*
X96121917Y-90004235D01*
X96447650Y-90062405D01*
X96767668Y-90136265D01*
X97081555Y-90225399D01*
X97388896Y-90329391D01*
X97689274Y-90447827D01*
X97982275Y-90580290D01*
X98267483Y-90726365D01*
X98544482Y-90885636D01*
X98812856Y-91057688D01*
X99072191Y-91242104D01*
X99322069Y-91438470D01*
X99562077Y-91646370D01*
X99791797Y-91865388D01*
X100010815Y-92095108D01*
X100218715Y-92335116D01*
X100415081Y-92584994D01*
X100599497Y-92844329D01*
X100771549Y-93112703D01*
X100930820Y-93389702D01*
X101076895Y-93674909D01*
X101209358Y-93967910D01*
X101327794Y-94268289D01*
X101431786Y-94575630D01*
X101520920Y-94889517D01*
X101594780Y-95209535D01*
X101652950Y-95535268D01*
X101695015Y-95866301D01*
X101720558Y-96202217D01*
X101729165Y-96542602D01*
X101720558Y-96882988D01*
X101695015Y-97218904D01*
X101652950Y-97549937D01*
X101594780Y-97875670D01*
X101520920Y-98195688D01*
X101431786Y-98509575D01*
X101327794Y-98816916D01*
X101209358Y-99117295D01*
X101076895Y-99410296D01*
X100930820Y-99695503D01*
X100771549Y-99972502D01*
X100599497Y-100240877D01*
X100415081Y-100500211D01*
X100218715Y-100750090D01*
X100010815Y-100990097D01*
X99791797Y-101219817D01*
X99562077Y-101438835D01*
X99322069Y-101646735D01*
X99072191Y-101843101D01*
X98812856Y-102027518D01*
X98544482Y-102199569D01*
X98267483Y-102358840D01*
X97982275Y-102504915D01*
X97689274Y-102637378D01*
X97388896Y-102755814D01*
X97081555Y-102859807D01*
X96767668Y-102948941D01*
X96447650Y-103022801D01*
X96121917Y-103080971D01*
X95790884Y-103123036D01*
X95454967Y-103148579D01*
X95114582Y-103157186D01*
X94774197Y-103148579D01*
X94438280Y-103123036D01*
X94107248Y-103080971D01*
X93781515Y-103022801D01*
X93461497Y-102948941D01*
X93147610Y-102859807D01*
X92840269Y-102755814D01*
X92539890Y-102637378D01*
X92246890Y-102504915D01*
X91961682Y-102358840D01*
X91684683Y-102199569D01*
X91416309Y-102027518D01*
X91156974Y-101843101D01*
X90907096Y-101646735D01*
X90667088Y-101438835D01*
X90437368Y-101219817D01*
X90218350Y-100990097D01*
X90010451Y-100750090D01*
X89814085Y-100500211D01*
X89629668Y-100240877D01*
X89457616Y-99972502D01*
X89298345Y-99695503D01*
X89152270Y-99410296D01*
X89019807Y-99117295D01*
X88901371Y-98816916D01*
X88797379Y-98509575D01*
X88708245Y-98195688D01*
X88634385Y-97875670D01*
X88576215Y-97549937D01*
X88534150Y-97218904D01*
X88508607Y-96882988D01*
X88500000Y-96542602D01*
X88508607Y-96202217D01*
X88534150Y-95866301D01*
X88576215Y-95535268D01*
X88634385Y-95209535D01*
X88708245Y-94889517D01*
X88797379Y-94575630D01*
X88901371Y-94268289D01*
X89019807Y-93967910D01*
X89152270Y-93674909D01*
X89298345Y-93389702D01*
X89457616Y-93112703D01*
X89629668Y-92844329D01*
X89814085Y-92584994D01*
X90010451Y-92335116D01*
X90218350Y-92095108D01*
X90437368Y-91865388D01*
X90667088Y-91646370D01*
X90907096Y-91438470D01*
X91156974Y-91242104D01*
X91416309Y-91057688D01*
X91684683Y-90885636D01*
X91961682Y-90726365D01*
X92246890Y-90580290D01*
X92539890Y-90447827D01*
X92840269Y-90329391D01*
X93147610Y-90225399D01*
X93461497Y-90136265D01*
X93781515Y-90062405D01*
X94107248Y-90004235D01*
X94438280Y-89962170D01*
X94774197Y-89936627D01*
X95114582Y-89928020D01*
X95454967Y-89936627D01*
G37*
G36*
X93162040Y-140771520D02*
G01*
X86415166Y-140771520D01*
X86415166Y-140637164D01*
X86448165Y-140638055D01*
X86481214Y-140638702D01*
X86514311Y-140639095D01*
X86547457Y-140639228D01*
X86819766Y-140630621D01*
X87088500Y-140605077D01*
X87353326Y-140563013D01*
X87613913Y-140504843D01*
X87869928Y-140430983D01*
X88121038Y-140341849D01*
X88366910Y-140237856D01*
X88607213Y-140119420D01*
X88841614Y-139986957D01*
X89069780Y-139840882D01*
X89291380Y-139681611D01*
X89506079Y-139509559D01*
X89713546Y-139325143D01*
X89913449Y-139128777D01*
X90105455Y-138920877D01*
X90289231Y-138701859D01*
X90464445Y-138472139D01*
X90630765Y-138232131D01*
X90787857Y-137982253D01*
X90935391Y-137722919D01*
X91073032Y-137454544D01*
X91200448Y-137177545D01*
X91317308Y-136892338D01*
X91423279Y-136599337D01*
X91518027Y-136298958D01*
X91601221Y-135991617D01*
X91672528Y-135677730D01*
X91731616Y-135357712D01*
X91778152Y-135031979D01*
X91811803Y-134700947D01*
X91832238Y-134365030D01*
X91839124Y-134024645D01*
X91832238Y-133684260D01*
X91811803Y-133348343D01*
X91778152Y-133017310D01*
X91731616Y-132691577D01*
X91601221Y-132057672D01*
X91423279Y-131449953D01*
X91200448Y-130871744D01*
X90935391Y-130326371D01*
X90630765Y-129817158D01*
X90464445Y-129577150D01*
X90289231Y-129347430D01*
X90105455Y-129128412D01*
X89913449Y-128920512D01*
X89713546Y-128724146D01*
X89506079Y-128539730D01*
X89291380Y-128367678D01*
X89069780Y-128208407D01*
X88841614Y-128062332D01*
X88607213Y-127929869D01*
X88366910Y-127811433D01*
X88121038Y-127707441D01*
X87869928Y-127618307D01*
X87613913Y-127544447D01*
X87353326Y-127486277D01*
X87088500Y-127444212D01*
X86819766Y-127418669D01*
X86547457Y-127410062D01*
X86514312Y-127410155D01*
X86481213Y-127410460D01*
X86448164Y-127411019D01*
X86415166Y-127411870D01*
X86415166Y-127277770D01*
X93162040Y-127277770D01*
X93162040Y-140771520D01*
G37*
D13*
X101279486Y-133232099D02*
X101326514Y-133235676D01*
X101372859Y-133241565D01*
X101418462Y-133249708D01*
X101463264Y-133260049D01*
X101507208Y-133272528D01*
X101550236Y-133287087D01*
X101592289Y-133303668D01*
X101633309Y-133322212D01*
X101673238Y-133342663D01*
X101712018Y-133364961D01*
X101749590Y-133389048D01*
X101785897Y-133414866D01*
X101820880Y-133442357D01*
X101854481Y-133471463D01*
X101886642Y-133502126D01*
X101917304Y-133534287D01*
X101946410Y-133567888D01*
X101973901Y-133602871D01*
X101999720Y-133639178D01*
X102023807Y-133676750D01*
X102046105Y-133715530D01*
X102066555Y-133755459D01*
X102085100Y-133796479D01*
X102101681Y-133838532D01*
X102116240Y-133881560D01*
X102128718Y-133925504D01*
X102139059Y-133970307D01*
X102147203Y-134015909D01*
X102153092Y-134062254D01*
X102156668Y-134109282D01*
X102157873Y-134156936D01*
X102156668Y-134204590D01*
X102153092Y-134251619D01*
X102147203Y-134297963D01*
X102139059Y-134343566D01*
X102128718Y-134388368D01*
X102116240Y-134432313D01*
X102101681Y-134475340D01*
X102085100Y-134517393D01*
X102066555Y-134558414D01*
X102046105Y-134598343D01*
X102023807Y-134637122D01*
X101999720Y-134674695D01*
X101973901Y-134711002D01*
X101946410Y-134745985D01*
X101917304Y-134779586D01*
X101886642Y-134811746D01*
X101854481Y-134842409D01*
X101820880Y-134871515D01*
X101785897Y-134899006D01*
X101749590Y-134924824D01*
X101712018Y-134948912D01*
X101673238Y-134971210D01*
X101633309Y-134991660D01*
X101592289Y-135010205D01*
X101550236Y-135026786D01*
X101507208Y-135041345D01*
X101463264Y-135053824D01*
X101418462Y-135064164D01*
X101372859Y-135072308D01*
X101326514Y-135078197D01*
X101279486Y-135081773D01*
X101231832Y-135082978D01*
X101184178Y-135081773D01*
X101137149Y-135078197D01*
X101090805Y-135072308D01*
X101045202Y-135064164D01*
X101000399Y-135053824D01*
X100956455Y-135041345D01*
X100913427Y-135026786D01*
X100871374Y-135010205D01*
X100830354Y-134991660D01*
X100790425Y-134971210D01*
X100751645Y-134948912D01*
X100714072Y-134924824D01*
X100677766Y-134899006D01*
X100642783Y-134871515D01*
X100609181Y-134842409D01*
X100577021Y-134811746D01*
X100546358Y-134779586D01*
X100517252Y-134745985D01*
X100489761Y-134711002D01*
X100463943Y-134674695D01*
X100439856Y-134637122D01*
X100417558Y-134598343D01*
X100397107Y-134558414D01*
X100378562Y-134517393D01*
X100361981Y-134475340D01*
X100347422Y-134432313D01*
X100334944Y-134388368D01*
X100324603Y-134343566D01*
X100316460Y-134297963D01*
X100310571Y-134251619D01*
X100306994Y-134204590D01*
X100305789Y-134156936D01*
X100306994Y-134109282D01*
X100310571Y-134062254D01*
X100316460Y-134015909D01*
X100324603Y-133970307D01*
X100334944Y-133925504D01*
X100347422Y-133881560D01*
X100361981Y-133838532D01*
X100378562Y-133796479D01*
X100397107Y-133755459D01*
X100417558Y-133715530D01*
X100439856Y-133676750D01*
X100463943Y-133639178D01*
X100489761Y-133602871D01*
X100517252Y-133567888D01*
X100546358Y-133534287D01*
X100577021Y-133502126D01*
X100609181Y-133471463D01*
X100642783Y-133442357D01*
X100677766Y-133414866D01*
X100714072Y-133389048D01*
X100751645Y-133364961D01*
X100790425Y-133342663D01*
X100830354Y-133322212D01*
X100871374Y-133303668D01*
X100913427Y-133287087D01*
X100956455Y-133272528D01*
X101000399Y-133260049D01*
X101045202Y-133249708D01*
X101090805Y-133241565D01*
X101137149Y-133235676D01*
X101184178Y-133232099D01*
X101231832Y-133230895D01*
X101279486Y-133232099D01*
D10*
G36*
X106550730Y-133628458D02*
G01*
X106577604Y-133630501D01*
X106604087Y-133633866D01*
X106630146Y-133638520D01*
X106655748Y-133644428D01*
X106680859Y-133651559D01*
X106705447Y-133659878D01*
X106729477Y-133669353D01*
X106752918Y-133679950D01*
X106775734Y-133691635D01*
X106797894Y-133704377D01*
X106819364Y-133718141D01*
X106840111Y-133732894D01*
X106860101Y-133748603D01*
X106879301Y-133765235D01*
X106897679Y-133782756D01*
X106915200Y-133801133D01*
X106931832Y-133820334D01*
X106947541Y-133840324D01*
X106962294Y-133861070D01*
X106976058Y-133882540D01*
X106988799Y-133904700D01*
X107000485Y-133927517D01*
X107011082Y-133950957D01*
X107020556Y-133974988D01*
X107028876Y-133999575D01*
X107036006Y-134024686D01*
X107041915Y-134050288D01*
X107046568Y-134076347D01*
X107049933Y-134102831D01*
X107051977Y-134129705D01*
X107052665Y-134156936D01*
X107051977Y-134184168D01*
X107049933Y-134211042D01*
X107046568Y-134237525D01*
X107041915Y-134263584D01*
X107036006Y-134289186D01*
X107028876Y-134314297D01*
X107020556Y-134338885D01*
X107011082Y-134362915D01*
X107000485Y-134386355D01*
X106988799Y-134409172D01*
X106976058Y-134431332D01*
X106962294Y-134452802D01*
X106947541Y-134473549D01*
X106931832Y-134493539D01*
X106915200Y-134512739D01*
X106897679Y-134531117D01*
X106879301Y-134548638D01*
X106860101Y-134565270D01*
X106840111Y-134580979D01*
X106819364Y-134595732D01*
X106797894Y-134609496D01*
X106775734Y-134622237D01*
X106752918Y-134633923D01*
X106729477Y-134644519D01*
X106705447Y-134653994D01*
X106680859Y-134662313D01*
X106655748Y-134669444D01*
X106630146Y-134675352D01*
X106604087Y-134680006D01*
X106577604Y-134683371D01*
X106550730Y-134685414D01*
X106523498Y-134686103D01*
X99908915Y-134686103D01*
X99908915Y-133627769D01*
X106523498Y-133627769D01*
X106550730Y-133628458D01*
G37*
G36*
X92500000Y-137500000D02*
G01*
X92506429Y-138029113D01*
X84569517Y-138125660D01*
X84542280Y-138125302D01*
X84515384Y-138123584D01*
X84488862Y-138120541D01*
X84462749Y-138116204D01*
X84437078Y-138110606D01*
X84411882Y-138103780D01*
X84387195Y-138095760D01*
X84363052Y-138086577D01*
X84339485Y-138076265D01*
X84316527Y-138064857D01*
X84294214Y-138052385D01*
X84272579Y-138038882D01*
X84251654Y-138024382D01*
X84231474Y-138008916D01*
X84212073Y-137992518D01*
X84193483Y-137975221D01*
X84175740Y-137957057D01*
X84158876Y-137938060D01*
X84142924Y-137918261D01*
X84127920Y-137897695D01*
X84113896Y-137876394D01*
X84100885Y-137854390D01*
X84088923Y-137831716D01*
X84078042Y-137808406D01*
X84068275Y-137784493D01*
X84059657Y-137760008D01*
X84052222Y-137734985D01*
X84046002Y-137709457D01*
X84041032Y-137683457D01*
X84037345Y-137657017D01*
X84034975Y-137630170D01*
X84033955Y-137602949D01*
X84034312Y-137575712D01*
X84036029Y-137548815D01*
X84039072Y-137522294D01*
X84043408Y-137496180D01*
X84049005Y-137470509D01*
X84055830Y-137445313D01*
X84063850Y-137420627D01*
X84073032Y-137396483D01*
X84083343Y-137372916D01*
X84094750Y-137349959D01*
X84107222Y-137327646D01*
X84120724Y-137306011D01*
X84135224Y-137285086D01*
X84150689Y-137264907D01*
X84167086Y-137245506D01*
X84184383Y-137226917D01*
X84202546Y-137209173D01*
X84221543Y-137192309D01*
X84241340Y-137176358D01*
X84557973Y-137176358D01*
X84568343Y-138029113D01*
X84563083Y-137596519D01*
X84557973Y-137176358D01*
X84241340Y-137176358D01*
X84261906Y-137161353D01*
X84283207Y-137147329D01*
X84305211Y-137134318D01*
X84327883Y-137122355D01*
X84351193Y-137111474D01*
X84375106Y-137101707D01*
X84399591Y-137093088D01*
X84424613Y-137085652D01*
X84450141Y-137079431D01*
X84476141Y-137074460D01*
X84502581Y-137070772D01*
X84529427Y-137068400D01*
X84556648Y-137067379D01*
X92493571Y-136970859D01*
X92500000Y-137500000D01*
G37*
G36*
X92500582Y-130981936D02*
G01*
X84563083Y-130981936D01*
X84535852Y-130981248D01*
X84508978Y-130979204D01*
X84482496Y-130975839D01*
X84456437Y-130971186D01*
X84430836Y-130965277D01*
X84405725Y-130958147D01*
X84381137Y-130949828D01*
X84357107Y-130940353D01*
X84333667Y-130929756D01*
X84310850Y-130918070D01*
X84288691Y-130905329D01*
X84267221Y-130891565D01*
X84246474Y-130876812D01*
X84226484Y-130861103D01*
X84207283Y-130844471D01*
X84188905Y-130826950D01*
X84171384Y-130808573D01*
X84154752Y-130789372D01*
X84139043Y-130769382D01*
X84124289Y-130748635D01*
X84110525Y-130727165D01*
X84097784Y-130705006D01*
X84086098Y-130682189D01*
X84075501Y-130658749D01*
X84066026Y-130634718D01*
X84057706Y-130610131D01*
X84050576Y-130585019D01*
X84044667Y-130559418D01*
X84040013Y-130533358D01*
X84036648Y-130506875D01*
X84034605Y-130480001D01*
X84033916Y-130452770D01*
X84034605Y-130425538D01*
X84036648Y-130398664D01*
X84040013Y-130372181D01*
X84044667Y-130346122D01*
X84050576Y-130320520D01*
X84057706Y-130295409D01*
X84066026Y-130270821D01*
X84075501Y-130246791D01*
X84086098Y-130223351D01*
X84097784Y-130200534D01*
X84110525Y-130178374D01*
X84124289Y-130156904D01*
X84139043Y-130136158D01*
X84154752Y-130116167D01*
X84171384Y-130096967D01*
X84188905Y-130078590D01*
X84207283Y-130061068D01*
X84226484Y-130044437D01*
X84246474Y-130028728D01*
X84267221Y-130013974D01*
X84288691Y-130000211D01*
X84310850Y-129987469D01*
X84333667Y-129975783D01*
X84357107Y-129965187D01*
X84381137Y-129955712D01*
X84405725Y-129947393D01*
X84430836Y-129940262D01*
X84456437Y-129934354D01*
X84482496Y-129929700D01*
X84508978Y-129926335D01*
X84535852Y-129924292D01*
X84563083Y-129923603D01*
X92500582Y-129923603D01*
X92500582Y-130981936D01*
G37*
G36*
X93509256Y-127286554D02*
G01*
X93851889Y-127312613D01*
X94189540Y-127355523D01*
X94521785Y-127414860D01*
X94848202Y-127490200D01*
X95168365Y-127581120D01*
X95481852Y-127687195D01*
X95788237Y-127808002D01*
X96087098Y-127943116D01*
X96378009Y-128092114D01*
X96660548Y-128254572D01*
X96934290Y-128430066D01*
X97198811Y-128618171D01*
X97453688Y-128818465D01*
X97698496Y-129030522D01*
X97932812Y-129253920D01*
X98156211Y-129488235D01*
X98368270Y-129733041D01*
X98568564Y-129987916D01*
X98756670Y-130252436D01*
X98932164Y-130526176D01*
X99094622Y-130808713D01*
X99243619Y-131099623D01*
X99378733Y-131398482D01*
X99499538Y-131704866D01*
X99605612Y-132018351D01*
X99696530Y-132338513D01*
X99771867Y-132664929D01*
X99831202Y-132997173D01*
X99874108Y-133334824D01*
X99900163Y-133677455D01*
X99908942Y-134024645D01*
X99900163Y-134371834D01*
X99874108Y-134714466D01*
X99831202Y-135052116D01*
X99771867Y-135384361D01*
X99696530Y-135710776D01*
X99605612Y-136030939D01*
X99499538Y-136344424D01*
X99378733Y-136650808D01*
X99243619Y-136949666D01*
X99094622Y-137240576D01*
X98932164Y-137523114D01*
X98756670Y-137796854D01*
X98568564Y-138061374D01*
X98368270Y-138316249D01*
X98156211Y-138561056D01*
X97932812Y-138795370D01*
X97698496Y-139018768D01*
X97453688Y-139230826D01*
X97198811Y-139431119D01*
X96934290Y-139619225D01*
X96660548Y-139794719D01*
X96378009Y-139957176D01*
X96087098Y-140106174D01*
X95788237Y-140241289D01*
X95481852Y-140362095D01*
X95168365Y-140468170D01*
X94848202Y-140559090D01*
X94521785Y-140634430D01*
X94189540Y-140693767D01*
X93851889Y-140736677D01*
X93509256Y-140762736D01*
X93162067Y-140771520D01*
X92993668Y-140769349D01*
X92833462Y-140762828D01*
X92681341Y-140751926D01*
X92537196Y-140736612D01*
X92400918Y-140716856D01*
X92272399Y-140692628D01*
X92151530Y-140663897D01*
X92038203Y-140630632D01*
X91932310Y-140592804D01*
X91833741Y-140550381D01*
X91742388Y-140503334D01*
X91658144Y-140451632D01*
X91580899Y-140395244D01*
X91510544Y-140334141D01*
X91446972Y-140268291D01*
X91390073Y-140197664D01*
X91364425Y-140161022D01*
X91340574Y-140123502D01*
X91318479Y-140085121D01*
X91298101Y-140045896D01*
X91262341Y-139964982D01*
X91232981Y-139880896D01*
X91209708Y-139793774D01*
X91192208Y-139703753D01*
X91180167Y-139610968D01*
X91173273Y-139515555D01*
X91171212Y-139417651D01*
X91173672Y-139317391D01*
X91180337Y-139214912D01*
X91190896Y-139110348D01*
X91205035Y-139003838D01*
X91222440Y-138895516D01*
X91242799Y-138785518D01*
X91265798Y-138673982D01*
X91319627Y-138442845D01*
X91382727Y-138200406D01*
X91453218Y-137947681D01*
X91529221Y-137685684D01*
X91690245Y-137137942D01*
X91771508Y-136854228D01*
X91850766Y-136565307D01*
X91927537Y-136267055D01*
X91999444Y-135962543D01*
X92064833Y-135652138D01*
X92122046Y-135336211D01*
X92169428Y-135015128D01*
X92205322Y-134689261D01*
X92218444Y-134524648D01*
X92228074Y-134358976D01*
X92234003Y-134192294D01*
X92236025Y-134024645D01*
X92234003Y-133856996D01*
X92228074Y-133690313D01*
X92218444Y-133524642D01*
X92205322Y-133360029D01*
X92169428Y-133034161D01*
X92122046Y-132713079D01*
X92064833Y-132397151D01*
X91999444Y-132086747D01*
X91927537Y-131782234D01*
X91850766Y-131483983D01*
X91771508Y-131195062D01*
X91690245Y-130911348D01*
X91529221Y-130363606D01*
X91382727Y-129848887D01*
X91319627Y-129606449D01*
X91265798Y-129375315D01*
X91242799Y-129263778D01*
X91222440Y-129153780D01*
X91205035Y-129045458D01*
X91190896Y-128938948D01*
X91180337Y-128834385D01*
X91173672Y-128731906D01*
X91171212Y-128631646D01*
X91173273Y-128533742D01*
X91180167Y-128438330D01*
X91192208Y-128345546D01*
X91209708Y-128255525D01*
X91232981Y-128168404D01*
X91262341Y-128084319D01*
X91298101Y-128003405D01*
X91340574Y-127925800D01*
X91390073Y-127851638D01*
X91417695Y-127815724D01*
X91446972Y-127781007D01*
X91477917Y-127747485D01*
X91510544Y-127715154D01*
X91544867Y-127684009D01*
X91580899Y-127654047D01*
X91618653Y-127625264D01*
X91658144Y-127597657D01*
X91699384Y-127571221D01*
X91742388Y-127545952D01*
X91787169Y-127521848D01*
X91833741Y-127498903D01*
X91882116Y-127477115D01*
X91932310Y-127456479D01*
X92038203Y-127418650D01*
X92151530Y-127385385D01*
X92272399Y-127356654D01*
X92400918Y-127332426D01*
X92537196Y-127312670D01*
X92681341Y-127297358D01*
X92833462Y-127286457D01*
X92993668Y-127279938D01*
X93162067Y-127277770D01*
X93509256Y-127286554D01*
G37*
G36*
X55500000Y-133500000D02*
G01*
X55534381Y-133502825D01*
X55568826Y-133508000D01*
X55603239Y-133515580D01*
X55637523Y-133525622D01*
X55671580Y-133538180D01*
X55705315Y-133553313D01*
X55738629Y-133571074D01*
X64073003Y-138382913D01*
X64105042Y-138402884D01*
X64135013Y-138424534D01*
X64162918Y-138447750D01*
X64188755Y-138472421D01*
X64212526Y-138498434D01*
X64234229Y-138525678D01*
X64253866Y-138554041D01*
X64271435Y-138583411D01*
X64286938Y-138613676D01*
X64300373Y-138644725D01*
X64311742Y-138676445D01*
X64321043Y-138708724D01*
X64328278Y-138741451D01*
X64333445Y-138774513D01*
X64336546Y-138807800D01*
X64337579Y-138841198D01*
X64336546Y-138874596D01*
X64333445Y-138907882D01*
X64328278Y-138940945D01*
X64321043Y-138973672D01*
X64311742Y-139005951D01*
X64300373Y-139037671D01*
X64286938Y-139068719D01*
X64271435Y-139098985D01*
X64253866Y-139128355D01*
X64234229Y-139156718D01*
X64212526Y-139183962D01*
X64188755Y-139209975D01*
X64162918Y-139234646D01*
X64135013Y-139257862D01*
X64105042Y-139279511D01*
X64073003Y-139299482D01*
X55738629Y-144111327D01*
X55705315Y-144129088D01*
X55671580Y-144144221D01*
X55637523Y-144156779D01*
X55603239Y-144166820D01*
X55568826Y-144174400D01*
X55534381Y-144179574D01*
X55500000Y-144182399D01*
X55465781Y-144182930D01*
X55431820Y-144181223D01*
X55398214Y-144177335D01*
X55365061Y-144171321D01*
X55332456Y-144163237D01*
X55300497Y-144153139D01*
X55269281Y-144141083D01*
X55238905Y-144127125D01*
X55209466Y-144111321D01*
X55181059Y-144093727D01*
X55153784Y-144074398D01*
X55127735Y-144053392D01*
X55103011Y-144030763D01*
X55079708Y-144006568D01*
X55057923Y-143980862D01*
X55037753Y-143953702D01*
X55019294Y-143925143D01*
X55002644Y-143895242D01*
X54987900Y-143864055D01*
X54975158Y-143831636D01*
X54964516Y-143798043D01*
X54956070Y-143763331D01*
X54949917Y-143727557D01*
X54946155Y-143690775D01*
X54944879Y-143653043D01*
X54944879Y-134029345D01*
X54946155Y-133991613D01*
X54949917Y-133954832D01*
X54956070Y-133919057D01*
X54964516Y-133884345D01*
X54975158Y-133850753D01*
X54987900Y-133818335D01*
X55002644Y-133787147D01*
X55019294Y-133757247D01*
X55037753Y-133728689D01*
X55057923Y-133701529D01*
X55079708Y-133675824D01*
X55103011Y-133651629D01*
X55127735Y-133629001D01*
X55153784Y-133607995D01*
X55181059Y-133588667D01*
X55209466Y-133571074D01*
X55238905Y-133555270D01*
X55269281Y-133541313D01*
X55300497Y-133529258D01*
X55332456Y-133519160D01*
X55365061Y-133511077D01*
X55398214Y-133505063D01*
X55431820Y-133501175D01*
X55465781Y-133499469D01*
X55500000Y-133500000D01*
G37*
G36*
X70185652Y-138312720D02*
G01*
X70212526Y-138314763D01*
X70239009Y-138318128D01*
X70265068Y-138322782D01*
X70290669Y-138328690D01*
X70315781Y-138335821D01*
X70340368Y-138344140D01*
X70364398Y-138353615D01*
X70387838Y-138364211D01*
X70410655Y-138375897D01*
X70432815Y-138388639D01*
X70454285Y-138402402D01*
X70475031Y-138417155D01*
X70495022Y-138432864D01*
X70514222Y-138449496D01*
X70532599Y-138467017D01*
X70550121Y-138485395D01*
X70566752Y-138504595D01*
X70582461Y-138524585D01*
X70597214Y-138545332D01*
X70610978Y-138566802D01*
X70623720Y-138588962D01*
X70635405Y-138611779D01*
X70646002Y-138635219D01*
X70655477Y-138659249D01*
X70663796Y-138683837D01*
X70670926Y-138708948D01*
X70676835Y-138734550D01*
X70681489Y-138760609D01*
X70684854Y-138787092D01*
X70686897Y-138813966D01*
X70687586Y-138841198D01*
X70686897Y-138868430D01*
X70684854Y-138895303D01*
X70681489Y-138921787D01*
X70676835Y-138947846D01*
X70670926Y-138973448D01*
X70663796Y-138998559D01*
X70655477Y-139023146D01*
X70646002Y-139047177D01*
X70635405Y-139070617D01*
X70623720Y-139093434D01*
X70610978Y-139115594D01*
X70597214Y-139137064D01*
X70582461Y-139157810D01*
X70566752Y-139177800D01*
X70550121Y-139197001D01*
X70532599Y-139215378D01*
X70514222Y-139232900D01*
X70495022Y-139249531D01*
X70475031Y-139265240D01*
X70454285Y-139279993D01*
X70432815Y-139293757D01*
X70410655Y-139306499D01*
X70387838Y-139318184D01*
X70364398Y-139328781D01*
X70340368Y-139338256D01*
X70315781Y-139346575D01*
X70290669Y-139353706D01*
X70265068Y-139359614D01*
X70239009Y-139364268D01*
X70212526Y-139367633D01*
X70185652Y-139369676D01*
X70158420Y-139370365D01*
X63543836Y-139370365D01*
X63543836Y-138312031D01*
X70158420Y-138312031D01*
X70185652Y-138312720D01*
G37*
G36*
X55606337Y-139370365D02*
G01*
X51637587Y-139370365D01*
X47668838Y-139370365D01*
X47641607Y-139369676D01*
X47614733Y-139367633D01*
X47588251Y-139364268D01*
X47562192Y-139359614D01*
X47536591Y-139353706D01*
X47511480Y-139346575D01*
X47486892Y-139338256D01*
X47462862Y-139328781D01*
X47439422Y-139318184D01*
X47416605Y-139306499D01*
X47394446Y-139293757D01*
X47372976Y-139279993D01*
X47352229Y-139265240D01*
X47332239Y-139249531D01*
X47313038Y-139232900D01*
X47294660Y-139215378D01*
X47277139Y-139197001D01*
X47260507Y-139177800D01*
X47244798Y-139157810D01*
X47230044Y-139137064D01*
X47216280Y-139115594D01*
X47203539Y-139093434D01*
X47191853Y-139070617D01*
X47181256Y-139047177D01*
X47171781Y-139023146D01*
X47163461Y-138998559D01*
X47156331Y-138973448D01*
X47150422Y-138947846D01*
X47145768Y-138921787D01*
X47142403Y-138895303D01*
X47140360Y-138868430D01*
X47139671Y-138841198D01*
X47140360Y-138813966D01*
X47142403Y-138787092D01*
X47145768Y-138760609D01*
X47150422Y-138734550D01*
X47156331Y-138708948D01*
X47163461Y-138683837D01*
X47171781Y-138659249D01*
X47181256Y-138635219D01*
X47191853Y-138611779D01*
X47203539Y-138588962D01*
X47216280Y-138566802D01*
X47230044Y-138545332D01*
X47244798Y-138524585D01*
X47260507Y-138504595D01*
X47277139Y-138485395D01*
X47294660Y-138467017D01*
X47313038Y-138449496D01*
X47332239Y-138432864D01*
X47352229Y-138417155D01*
X47372976Y-138402402D01*
X47394446Y-138388639D01*
X47416605Y-138375897D01*
X47439422Y-138364211D01*
X47462862Y-138353615D01*
X47486892Y-138344140D01*
X47511480Y-138335821D01*
X47536591Y-138328690D01*
X47562192Y-138322782D01*
X47588251Y-138318128D01*
X47614733Y-138314763D01*
X47641607Y-138312720D01*
X47668838Y-138312031D01*
X51637587Y-138312031D01*
X55606337Y-138312031D01*
X55606337Y-139370365D01*
G37*
D13*
X64914408Y-137916361D02*
X64961437Y-137919937D01*
X65007781Y-137925826D01*
X65053384Y-137933970D01*
X65098186Y-137944311D01*
X65142130Y-137956789D01*
X65185158Y-137971348D01*
X65227211Y-137987929D01*
X65268231Y-138006474D01*
X65308160Y-138026925D01*
X65346940Y-138049222D01*
X65384512Y-138073310D01*
X65420819Y-138099128D01*
X65455802Y-138126619D01*
X65489403Y-138155725D01*
X65521564Y-138186388D01*
X65552226Y-138218548D01*
X65581332Y-138252149D01*
X65608823Y-138287132D01*
X65634642Y-138323439D01*
X65658729Y-138361012D01*
X65681027Y-138399791D01*
X65701477Y-138439721D01*
X65720022Y-138480741D01*
X65736603Y-138522794D01*
X65751162Y-138565821D01*
X65763641Y-138609766D01*
X65773981Y-138654568D01*
X65782125Y-138700171D01*
X65788014Y-138746516D01*
X65791590Y-138793544D01*
X65792795Y-138841198D01*
X65791590Y-138888852D01*
X65788014Y-138935880D01*
X65782125Y-138982225D01*
X65773981Y-139027828D01*
X65763641Y-139072630D01*
X65751162Y-139116574D01*
X65736603Y-139159602D01*
X65720022Y-139201655D01*
X65701477Y-139242675D01*
X65681027Y-139282604D01*
X65658729Y-139321384D01*
X65634642Y-139358957D01*
X65608823Y-139395263D01*
X65581332Y-139430246D01*
X65552226Y-139463847D01*
X65521564Y-139496008D01*
X65489403Y-139526671D01*
X65455802Y-139555777D01*
X65420819Y-139583268D01*
X65384512Y-139609086D01*
X65346940Y-139633173D01*
X65308160Y-139655471D01*
X65268231Y-139675922D01*
X65227211Y-139694467D01*
X65185158Y-139711048D01*
X65142130Y-139725607D01*
X65098186Y-139738085D01*
X65053384Y-139748426D01*
X65007781Y-139756569D01*
X64961437Y-139762459D01*
X64914408Y-139766035D01*
X64866754Y-139767240D01*
X64819100Y-139766035D01*
X64772072Y-139762459D01*
X64725727Y-139756569D01*
X64680124Y-139748426D01*
X64635321Y-139738085D01*
X64591377Y-139725607D01*
X64548349Y-139711048D01*
X64506296Y-139694467D01*
X64465276Y-139675922D01*
X64425347Y-139655471D01*
X64386567Y-139633173D01*
X64348995Y-139609086D01*
X64312688Y-139583268D01*
X64277705Y-139555777D01*
X64244104Y-139526671D01*
X64211943Y-139496008D01*
X64181280Y-139463847D01*
X64152174Y-139430246D01*
X64124683Y-139395263D01*
X64098865Y-139358957D01*
X64074778Y-139321384D01*
X64052480Y-139282604D01*
X64032029Y-139242675D01*
X64013485Y-139201655D01*
X63996904Y-139159602D01*
X63982345Y-139116574D01*
X63969866Y-139072630D01*
X63959525Y-139027828D01*
X63951382Y-138982225D01*
X63945493Y-138935880D01*
X63941917Y-138888852D01*
X63940712Y-138841198D01*
X63941917Y-138793544D01*
X63945493Y-138746516D01*
X63951382Y-138700171D01*
X63959525Y-138654568D01*
X63969866Y-138609766D01*
X63982345Y-138565821D01*
X63996904Y-138522794D01*
X64013485Y-138480741D01*
X64032029Y-138439721D01*
X64052480Y-138399791D01*
X64074778Y-138361012D01*
X64098865Y-138323439D01*
X64124683Y-138287132D01*
X64152174Y-138252149D01*
X64181280Y-138218548D01*
X64211943Y-138186388D01*
X64244104Y-138155725D01*
X64277705Y-138126619D01*
X64312688Y-138099128D01*
X64348995Y-138073310D01*
X64386567Y-138049222D01*
X64425347Y-138026925D01*
X64465276Y-138006474D01*
X64506296Y-137987929D01*
X64548349Y-137971348D01*
X64591377Y-137956789D01*
X64635321Y-137944311D01*
X64680124Y-137933970D01*
X64725727Y-137925826D01*
X64772072Y-137919937D01*
X64819100Y-137916361D01*
X64866754Y-137915156D01*
X64914408Y-137916361D01*
D10*
G36*
X55662040Y-126271520D02*
G01*
X48915166Y-126271520D01*
X48915166Y-126137164D01*
X48948165Y-126138055D01*
X48981214Y-126138702D01*
X49014311Y-126139095D01*
X49047457Y-126139228D01*
X49319766Y-126130621D01*
X49588500Y-126105077D01*
X49853326Y-126063013D01*
X50113913Y-126004843D01*
X50369928Y-125930983D01*
X50621038Y-125841849D01*
X50866910Y-125737856D01*
X51107213Y-125619420D01*
X51341614Y-125486957D01*
X51569780Y-125340882D01*
X51791380Y-125181611D01*
X52006079Y-125009559D01*
X52213546Y-124825143D01*
X52413449Y-124628777D01*
X52605455Y-124420877D01*
X52789231Y-124201859D01*
X52964445Y-123972139D01*
X53130765Y-123732131D01*
X53287857Y-123482253D01*
X53435391Y-123222919D01*
X53573032Y-122954544D01*
X53700448Y-122677545D01*
X53817308Y-122392338D01*
X53923279Y-122099337D01*
X54018027Y-121798958D01*
X54101221Y-121491617D01*
X54172528Y-121177730D01*
X54231616Y-120857712D01*
X54278152Y-120531979D01*
X54311803Y-120200947D01*
X54332238Y-119865030D01*
X54339124Y-119524645D01*
X54332238Y-119184260D01*
X54311803Y-118848343D01*
X54278152Y-118517310D01*
X54231616Y-118191577D01*
X54101221Y-117557672D01*
X53923279Y-116949953D01*
X53700448Y-116371744D01*
X53435391Y-115826371D01*
X53130765Y-115317158D01*
X52964445Y-115077150D01*
X52789231Y-114847430D01*
X52605455Y-114628412D01*
X52413449Y-114420512D01*
X52213546Y-114224146D01*
X52006079Y-114039730D01*
X51791380Y-113867678D01*
X51569780Y-113708407D01*
X51341614Y-113562332D01*
X51107213Y-113429869D01*
X50866910Y-113311433D01*
X50621038Y-113207441D01*
X50369928Y-113118307D01*
X50113913Y-113044447D01*
X49853326Y-112986277D01*
X49588500Y-112944212D01*
X49319766Y-112918669D01*
X49047457Y-112910062D01*
X49014312Y-112910155D01*
X48981213Y-112910460D01*
X48948164Y-112911019D01*
X48915166Y-112911870D01*
X48915166Y-112777770D01*
X55662040Y-112777770D01*
X55662040Y-126271520D01*
G37*
G36*
X69050730Y-119128458D02*
G01*
X69077604Y-119130501D01*
X69104087Y-119133866D01*
X69130146Y-119138520D01*
X69155748Y-119144428D01*
X69180859Y-119151559D01*
X69205447Y-119159878D01*
X69229477Y-119169353D01*
X69252918Y-119179950D01*
X69275734Y-119191635D01*
X69297894Y-119204377D01*
X69319364Y-119218141D01*
X69340111Y-119232894D01*
X69360101Y-119248603D01*
X69379301Y-119265235D01*
X69397679Y-119282756D01*
X69415200Y-119301133D01*
X69431832Y-119320334D01*
X69447541Y-119340324D01*
X69462294Y-119361070D01*
X69476058Y-119382540D01*
X69488799Y-119404700D01*
X69500485Y-119427517D01*
X69511082Y-119450957D01*
X69520556Y-119474988D01*
X69528876Y-119499575D01*
X69536006Y-119524686D01*
X69541915Y-119550288D01*
X69546568Y-119576347D01*
X69549933Y-119602831D01*
X69551977Y-119629705D01*
X69552665Y-119656936D01*
X69551977Y-119684168D01*
X69549933Y-119711042D01*
X69546568Y-119737525D01*
X69541915Y-119763584D01*
X69536006Y-119789186D01*
X69528876Y-119814297D01*
X69520556Y-119838885D01*
X69511082Y-119862915D01*
X69500485Y-119886355D01*
X69488799Y-119909172D01*
X69476058Y-119931332D01*
X69462294Y-119952802D01*
X69447541Y-119973549D01*
X69431832Y-119993539D01*
X69415200Y-120012739D01*
X69397679Y-120031117D01*
X69379301Y-120048638D01*
X69360101Y-120065270D01*
X69340111Y-120080979D01*
X69319364Y-120095732D01*
X69297894Y-120109496D01*
X69275734Y-120122237D01*
X69252918Y-120133923D01*
X69229477Y-120144519D01*
X69205447Y-120153994D01*
X69180859Y-120162313D01*
X69155748Y-120169444D01*
X69130146Y-120175352D01*
X69104087Y-120180006D01*
X69077604Y-120183371D01*
X69050730Y-120185414D01*
X69023498Y-120186103D01*
X62408915Y-120186103D01*
X62408915Y-119127769D01*
X69023498Y-119127769D01*
X69050730Y-119128458D01*
G37*
G36*
X55000000Y-123000000D02*
G01*
X55006429Y-123529113D01*
X47069517Y-123625660D01*
X47042280Y-123625302D01*
X47015384Y-123623584D01*
X46988862Y-123620541D01*
X46962749Y-123616204D01*
X46937078Y-123610606D01*
X46911882Y-123603780D01*
X46887195Y-123595760D01*
X46863052Y-123586577D01*
X46839485Y-123576265D01*
X46816527Y-123564857D01*
X46794214Y-123552385D01*
X46772579Y-123538882D01*
X46751654Y-123524382D01*
X46731474Y-123508916D01*
X46712073Y-123492518D01*
X46693483Y-123475221D01*
X46675740Y-123457057D01*
X46658876Y-123438060D01*
X46642924Y-123418261D01*
X46627920Y-123397695D01*
X46613896Y-123376394D01*
X46600885Y-123354390D01*
X46588923Y-123331716D01*
X46578042Y-123308406D01*
X46568275Y-123284493D01*
X46559657Y-123260008D01*
X46552222Y-123234985D01*
X46546002Y-123209457D01*
X46541032Y-123183457D01*
X46537345Y-123157017D01*
X46534975Y-123130170D01*
X46533955Y-123102949D01*
X46534312Y-123075712D01*
X46536029Y-123048815D01*
X46539072Y-123022294D01*
X46543408Y-122996180D01*
X46549005Y-122970509D01*
X46555830Y-122945313D01*
X46563850Y-122920627D01*
X46573032Y-122896483D01*
X46583343Y-122872916D01*
X46594750Y-122849959D01*
X46607222Y-122827646D01*
X46620724Y-122806011D01*
X46635224Y-122785086D01*
X46650689Y-122764907D01*
X46667086Y-122745506D01*
X46684383Y-122726917D01*
X46702546Y-122709173D01*
X46721543Y-122692309D01*
X46741340Y-122676358D01*
X47057973Y-122676358D01*
X47068343Y-123529113D01*
X47063083Y-123096519D01*
X47057973Y-122676358D01*
X46741340Y-122676358D01*
X46761906Y-122661353D01*
X46783207Y-122647329D01*
X46805211Y-122634318D01*
X46827883Y-122622355D01*
X46851193Y-122611474D01*
X46875106Y-122601707D01*
X46899591Y-122593088D01*
X46924613Y-122585652D01*
X46950141Y-122579431D01*
X46976141Y-122574460D01*
X47002581Y-122570772D01*
X47029427Y-122568400D01*
X47056648Y-122567379D01*
X54993571Y-122470859D01*
X55000000Y-123000000D01*
G37*
G36*
X55000582Y-116481936D02*
G01*
X47063083Y-116481936D01*
X47035852Y-116481248D01*
X47008978Y-116479204D01*
X46982496Y-116475839D01*
X46956437Y-116471186D01*
X46930836Y-116465277D01*
X46905725Y-116458147D01*
X46881137Y-116449828D01*
X46857107Y-116440353D01*
X46833667Y-116429756D01*
X46810850Y-116418070D01*
X46788691Y-116405329D01*
X46767221Y-116391565D01*
X46746474Y-116376812D01*
X46726484Y-116361103D01*
X46707283Y-116344471D01*
X46688905Y-116326950D01*
X46671384Y-116308573D01*
X46654752Y-116289372D01*
X46639043Y-116269382D01*
X46624289Y-116248635D01*
X46610525Y-116227165D01*
X46597784Y-116205006D01*
X46586098Y-116182189D01*
X46575501Y-116158749D01*
X46566026Y-116134718D01*
X46557706Y-116110131D01*
X46550576Y-116085019D01*
X46544667Y-116059418D01*
X46540013Y-116033358D01*
X46536648Y-116006875D01*
X46534605Y-115980001D01*
X46533916Y-115952770D01*
X46534605Y-115925538D01*
X46536648Y-115898664D01*
X46540013Y-115872181D01*
X46544667Y-115846122D01*
X46550576Y-115820520D01*
X46557706Y-115795409D01*
X46566026Y-115770821D01*
X46575501Y-115746791D01*
X46586098Y-115723351D01*
X46597784Y-115700534D01*
X46610525Y-115678374D01*
X46624289Y-115656904D01*
X46639043Y-115636158D01*
X46654752Y-115616167D01*
X46671384Y-115596967D01*
X46688905Y-115578590D01*
X46707283Y-115561068D01*
X46726484Y-115544437D01*
X46746474Y-115528728D01*
X46767221Y-115513974D01*
X46788691Y-115500211D01*
X46810850Y-115487469D01*
X46833667Y-115475783D01*
X46857107Y-115465187D01*
X46881137Y-115455712D01*
X46905725Y-115447393D01*
X46930836Y-115440262D01*
X46956437Y-115434354D01*
X46982496Y-115429700D01*
X47008978Y-115426335D01*
X47035852Y-115424292D01*
X47063083Y-115423603D01*
X55000582Y-115423603D01*
X55000582Y-116481936D01*
G37*
G36*
X56009254Y-112786554D02*
G01*
X56351884Y-112812613D01*
X56689533Y-112855523D01*
X57021778Y-112914860D01*
X57348193Y-112990200D01*
X57668355Y-113081120D01*
X57981841Y-113187195D01*
X58288226Y-113308002D01*
X58587086Y-113443116D01*
X58877997Y-113592114D01*
X59160536Y-113754572D01*
X59434278Y-113930066D01*
X59698800Y-114118171D01*
X59953677Y-114318465D01*
X60198486Y-114530522D01*
X60432802Y-114753920D01*
X60656202Y-114988235D01*
X60868261Y-115233041D01*
X61068556Y-115487916D01*
X61256663Y-115752436D01*
X61432158Y-116026176D01*
X61594616Y-116308713D01*
X61743615Y-116599623D01*
X61878729Y-116898482D01*
X61999535Y-117204866D01*
X62105610Y-117518351D01*
X62196528Y-117838513D01*
X62271866Y-118164929D01*
X62331201Y-118497173D01*
X62374108Y-118834824D01*
X62400163Y-119177455D01*
X62408942Y-119524645D01*
X62400163Y-119871834D01*
X62374108Y-120214466D01*
X62331201Y-120552116D01*
X62271866Y-120884361D01*
X62196528Y-121210776D01*
X62105610Y-121530939D01*
X61999535Y-121844424D01*
X61878729Y-122150808D01*
X61743615Y-122449666D01*
X61594616Y-122740576D01*
X61432158Y-123023114D01*
X61256663Y-123296854D01*
X61068556Y-123561374D01*
X60868261Y-123816249D01*
X60656202Y-124061056D01*
X60432802Y-124295370D01*
X60198486Y-124518768D01*
X59953677Y-124730826D01*
X59698800Y-124931119D01*
X59434278Y-125119225D01*
X59160536Y-125294719D01*
X58877997Y-125457176D01*
X58587086Y-125606174D01*
X58288226Y-125741289D01*
X57981841Y-125862095D01*
X57668355Y-125968170D01*
X57348193Y-126059090D01*
X57021778Y-126134430D01*
X56689533Y-126193767D01*
X56351884Y-126236677D01*
X56009254Y-126262736D01*
X55662067Y-126271520D01*
X55493673Y-126269349D01*
X55333470Y-126262828D01*
X55181351Y-126251926D01*
X55037207Y-126236612D01*
X54900929Y-126216856D01*
X54772410Y-126192628D01*
X54651541Y-126163897D01*
X54538213Y-126130632D01*
X54432318Y-126092804D01*
X54333748Y-126050381D01*
X54242394Y-126003334D01*
X54158148Y-125951632D01*
X54080901Y-125895244D01*
X54010545Y-125834141D01*
X53946972Y-125768291D01*
X53890073Y-125697664D01*
X53864425Y-125661022D01*
X53840574Y-125623502D01*
X53818479Y-125585120D01*
X53798101Y-125545895D01*
X53762341Y-125464980D01*
X53732981Y-125380892D01*
X53709708Y-125293769D01*
X53692208Y-125203746D01*
X53680167Y-125110959D01*
X53673273Y-125015545D01*
X53671212Y-124917640D01*
X53673672Y-124817379D01*
X53680337Y-124714900D01*
X53690896Y-124610337D01*
X53705035Y-124503828D01*
X53722440Y-124395508D01*
X53742799Y-124285514D01*
X53765798Y-124173982D01*
X53819620Y-123942845D01*
X53882716Y-123700406D01*
X53953207Y-123447681D01*
X54029211Y-123185684D01*
X54190241Y-122637942D01*
X54271507Y-122354228D01*
X54350766Y-122065307D01*
X54427537Y-121767055D01*
X54499444Y-121462543D01*
X54564833Y-121152138D01*
X54622046Y-120836211D01*
X54669428Y-120515128D01*
X54705322Y-120189261D01*
X54718444Y-120024648D01*
X54728074Y-119858976D01*
X54734003Y-119692294D01*
X54736025Y-119524645D01*
X54734003Y-119356996D01*
X54728074Y-119190313D01*
X54718444Y-119024642D01*
X54705322Y-118860029D01*
X54669428Y-118534161D01*
X54622046Y-118213079D01*
X54564833Y-117897151D01*
X54499444Y-117586747D01*
X54427537Y-117282234D01*
X54350766Y-116983983D01*
X54271507Y-116695062D01*
X54190241Y-116411348D01*
X54029211Y-115863606D01*
X53882716Y-115348887D01*
X53819620Y-115106449D01*
X53765798Y-114875315D01*
X53742799Y-114763779D01*
X53722440Y-114653783D01*
X53705035Y-114545461D01*
X53690896Y-114438951D01*
X53680337Y-114334388D01*
X53673672Y-114231909D01*
X53671212Y-114131649D01*
X53673273Y-114033744D01*
X53680167Y-113938332D01*
X53692208Y-113845547D01*
X53709708Y-113755525D01*
X53732981Y-113668404D01*
X53762341Y-113584318D01*
X53798101Y-113503405D01*
X53840574Y-113425799D01*
X53890073Y-113351638D01*
X53917695Y-113315724D01*
X53946972Y-113281008D01*
X53977917Y-113247486D01*
X54010545Y-113215155D01*
X54044868Y-113184010D01*
X54080901Y-113154049D01*
X54118656Y-113125266D01*
X54158148Y-113097659D01*
X54199389Y-113071223D01*
X54242394Y-113045955D01*
X54287176Y-113021850D01*
X54333748Y-112998906D01*
X54382124Y-112977118D01*
X54432318Y-112956482D01*
X54538213Y-112918653D01*
X54651541Y-112885388D01*
X54772410Y-112856656D01*
X54900929Y-112832428D01*
X55037207Y-112812672D01*
X55181351Y-112797359D01*
X55333470Y-112786458D01*
X55493673Y-112779939D01*
X55662067Y-112777770D01*
X56009254Y-112786554D01*
G37*
G36*
X59454967Y-88436627D02*
G01*
X59790884Y-88462170D01*
X60121917Y-88504235D01*
X60447650Y-88562405D01*
X60767668Y-88636265D01*
X61081555Y-88725399D01*
X61388896Y-88829391D01*
X61689274Y-88947827D01*
X61982275Y-89080290D01*
X62267483Y-89226365D01*
X62544482Y-89385636D01*
X62812856Y-89557688D01*
X63072191Y-89742104D01*
X63322069Y-89938470D01*
X63562077Y-90146370D01*
X63791797Y-90365388D01*
X64010815Y-90595108D01*
X64218715Y-90835116D01*
X64415081Y-91084994D01*
X64599497Y-91344329D01*
X64771549Y-91612703D01*
X64930820Y-91889702D01*
X65076895Y-92174909D01*
X65209358Y-92467910D01*
X65327794Y-92768289D01*
X65431786Y-93075630D01*
X65520920Y-93389517D01*
X65594780Y-93709535D01*
X65652950Y-94035268D01*
X65695015Y-94366301D01*
X65720558Y-94702217D01*
X65729165Y-95042602D01*
X65720558Y-95382988D01*
X65695015Y-95718904D01*
X65652950Y-96049937D01*
X65594780Y-96375670D01*
X65520920Y-96695688D01*
X65431786Y-97009575D01*
X65327794Y-97316916D01*
X65209358Y-97617295D01*
X65076895Y-97910296D01*
X64930820Y-98195503D01*
X64771549Y-98472502D01*
X64599497Y-98740877D01*
X64415081Y-99000211D01*
X64218715Y-99250090D01*
X64010815Y-99490097D01*
X63791797Y-99719817D01*
X63562077Y-99938835D01*
X63322069Y-100146735D01*
X63072191Y-100343101D01*
X62812856Y-100527518D01*
X62544482Y-100699569D01*
X62267483Y-100858840D01*
X61982275Y-101004915D01*
X61689274Y-101137378D01*
X61388896Y-101255814D01*
X61081555Y-101359807D01*
X60767668Y-101448941D01*
X60447650Y-101522801D01*
X60121917Y-101580971D01*
X59790884Y-101623036D01*
X59454967Y-101648579D01*
X59114582Y-101657186D01*
X58774197Y-101648579D01*
X58438280Y-101623036D01*
X58107248Y-101580971D01*
X57781515Y-101522801D01*
X57461497Y-101448941D01*
X57147610Y-101359807D01*
X56840269Y-101255814D01*
X56539890Y-101137378D01*
X56246890Y-101004915D01*
X55961682Y-100858840D01*
X55684683Y-100699569D01*
X55416309Y-100527518D01*
X55156974Y-100343101D01*
X54907096Y-100146735D01*
X54667088Y-99938835D01*
X54437368Y-99719817D01*
X54218350Y-99490097D01*
X54010451Y-99250090D01*
X53814085Y-99000211D01*
X53629668Y-98740877D01*
X53457616Y-98472502D01*
X53298345Y-98195503D01*
X53152270Y-97910296D01*
X53019807Y-97617295D01*
X52901371Y-97316916D01*
X52797379Y-97009575D01*
X52708245Y-96695688D01*
X52634385Y-96375670D01*
X52576215Y-96049937D01*
X52534150Y-95718904D01*
X52508607Y-95382988D01*
X52500000Y-95042602D01*
X52508607Y-94702217D01*
X52534150Y-94366301D01*
X52576215Y-94035268D01*
X52634385Y-93709535D01*
X52708245Y-93389517D01*
X52797379Y-93075630D01*
X52901371Y-92768289D01*
X53019807Y-92467910D01*
X53152270Y-92174909D01*
X53298345Y-91889702D01*
X53457616Y-91612703D01*
X53629668Y-91344329D01*
X53814085Y-91084994D01*
X54010451Y-90835116D01*
X54218350Y-90595108D01*
X54437368Y-90365388D01*
X54667088Y-90146370D01*
X54907096Y-89938470D01*
X55156974Y-89742104D01*
X55416309Y-89557688D01*
X55684683Y-89385636D01*
X55961682Y-89226365D01*
X56246890Y-89080290D01*
X56539890Y-88947827D01*
X56840269Y-88829391D01*
X57147610Y-88725399D01*
X57461497Y-88636265D01*
X57781515Y-88562405D01*
X58107248Y-88504235D01*
X58438280Y-88462170D01*
X58774197Y-88436627D01*
X59114582Y-88428020D01*
X59454967Y-88436627D01*
G37*
G36*
X59114582Y-101657186D02*
G01*
X53029166Y-101657186D01*
X53001935Y-101656497D01*
X52975061Y-101654454D01*
X52948578Y-101651089D01*
X52922518Y-101646435D01*
X52896917Y-101640527D01*
X52871805Y-101633396D01*
X52847218Y-101625077D01*
X52823187Y-101615602D01*
X52799747Y-101605006D01*
X52776930Y-101593320D01*
X52754770Y-101580578D01*
X52733301Y-101566814D01*
X52712554Y-101552061D01*
X52692564Y-101536352D01*
X52673363Y-101519720D01*
X52654986Y-101502199D01*
X52637465Y-101483822D01*
X52620833Y-101464621D01*
X52605124Y-101444631D01*
X52590371Y-101423884D01*
X52576607Y-101402414D01*
X52563866Y-101380255D01*
X52552180Y-101357438D01*
X52541583Y-101333998D01*
X52532108Y-101309967D01*
X52523789Y-101285380D01*
X52516659Y-101260268D01*
X52510750Y-101234667D01*
X52506097Y-101208607D01*
X52502732Y-101182124D01*
X52500688Y-101155250D01*
X52500000Y-101128019D01*
X52500000Y-88957186D01*
X52500688Y-88929955D01*
X52502732Y-88903082D01*
X52506097Y-88876599D01*
X52510750Y-88850541D01*
X52516659Y-88824939D01*
X52523789Y-88799828D01*
X52532108Y-88775241D01*
X52541583Y-88751211D01*
X52552180Y-88727771D01*
X52563866Y-88704954D01*
X52576607Y-88682794D01*
X52590371Y-88661324D01*
X52605124Y-88640577D01*
X52620833Y-88620587D01*
X52637465Y-88601387D01*
X52654986Y-88583009D01*
X52673363Y-88565488D01*
X52692564Y-88548856D01*
X52712554Y-88533146D01*
X52733301Y-88518393D01*
X52754770Y-88504629D01*
X52776930Y-88491887D01*
X52799747Y-88480201D01*
X52823187Y-88469604D01*
X52847218Y-88460129D01*
X52871805Y-88451810D01*
X52896917Y-88444679D01*
X52922518Y-88438770D01*
X52948578Y-88434117D01*
X52975061Y-88430752D01*
X53001935Y-88428708D01*
X53029166Y-88428020D01*
X59114582Y-88428020D01*
X59114582Y-101657186D01*
G37*
G36*
X59114582Y-88560311D02*
G01*
X53029166Y-88560311D01*
X53008744Y-88560828D01*
X52988589Y-88562360D01*
X52968728Y-88564884D01*
X52949184Y-88568374D01*
X52929983Y-88572806D01*
X52911151Y-88578154D01*
X52892710Y-88584393D01*
X52874688Y-88591500D01*
X52857108Y-88599447D01*
X52839995Y-88608212D01*
X52823375Y-88617768D01*
X52807273Y-88628091D01*
X52791713Y-88639156D01*
X52776720Y-88650938D01*
X52762319Y-88663412D01*
X52748536Y-88676553D01*
X52735395Y-88690336D01*
X52722921Y-88704737D01*
X52711139Y-88719729D01*
X52700073Y-88735289D01*
X52689750Y-88751392D01*
X52680194Y-88768012D01*
X52671429Y-88785124D01*
X52663481Y-88802704D01*
X52656375Y-88820727D01*
X52650135Y-88839168D01*
X52644787Y-88858001D01*
X52640355Y-88877202D01*
X52636865Y-88896746D01*
X52634341Y-88916608D01*
X52632808Y-88936763D01*
X52632292Y-88957186D01*
X52632292Y-101128019D01*
X52632808Y-101148441D01*
X52634341Y-101168596D01*
X52636865Y-101188457D01*
X52640355Y-101208001D01*
X52644787Y-101227202D01*
X52650135Y-101246035D01*
X52656375Y-101264475D01*
X52663481Y-101282498D01*
X52671429Y-101300078D01*
X52680194Y-101317190D01*
X52689750Y-101333810D01*
X52700073Y-101349912D01*
X52711139Y-101365473D01*
X52722921Y-101380465D01*
X52735395Y-101394866D01*
X52748536Y-101408649D01*
X52762319Y-101421791D01*
X52776720Y-101434265D01*
X52791713Y-101446047D01*
X52807273Y-101457112D01*
X52823375Y-101467436D01*
X52839995Y-101476992D01*
X52857108Y-101485757D01*
X52874688Y-101493705D01*
X52892710Y-101500811D01*
X52911151Y-101507051D01*
X52929983Y-101512399D01*
X52949184Y-101516831D01*
X52968728Y-101520321D01*
X52988589Y-101522845D01*
X53008744Y-101524378D01*
X53029166Y-101524894D01*
X59114582Y-101524894D01*
X59114582Y-101789478D01*
X53029166Y-101789478D01*
X52995128Y-101788617D01*
X52961537Y-101786063D01*
X52928434Y-101781856D01*
X52895860Y-101776039D01*
X52863859Y-101768653D01*
X52832470Y-101759740D01*
X52801736Y-101749340D01*
X52771698Y-101737496D01*
X52742398Y-101724250D01*
X52713877Y-101709642D01*
X52686178Y-101693715D01*
X52659340Y-101676510D01*
X52633407Y-101658068D01*
X52608419Y-101638431D01*
X52584418Y-101617641D01*
X52561446Y-101595739D01*
X52539544Y-101572767D01*
X52518754Y-101548766D01*
X52499117Y-101523779D01*
X52480676Y-101497845D01*
X52463470Y-101471008D01*
X52447543Y-101443308D01*
X52432935Y-101414787D01*
X52419689Y-101385487D01*
X52407845Y-101355449D01*
X52397446Y-101324715D01*
X52388533Y-101293326D01*
X52381147Y-101261325D01*
X52375329Y-101228752D01*
X52371123Y-101195648D01*
X52368569Y-101162057D01*
X52367708Y-101128019D01*
X52367708Y-88957186D01*
X52368569Y-88923148D01*
X52371123Y-88889556D01*
X52375329Y-88856453D01*
X52381147Y-88823880D01*
X52388533Y-88791878D01*
X52397446Y-88760489D01*
X52407845Y-88729755D01*
X52419689Y-88699717D01*
X52432935Y-88670417D01*
X52447543Y-88641896D01*
X52463470Y-88614196D01*
X52480676Y-88587359D01*
X52499117Y-88561425D01*
X52518754Y-88536438D01*
X52539544Y-88512437D01*
X52561446Y-88489465D01*
X52584418Y-88467563D01*
X52608419Y-88446773D01*
X52633407Y-88427136D01*
X52659340Y-88408695D01*
X52686178Y-88391490D01*
X52713877Y-88375563D01*
X52742398Y-88360955D01*
X52771698Y-88347709D01*
X52801736Y-88335865D01*
X52832470Y-88325466D01*
X52863859Y-88316552D01*
X52895860Y-88309167D01*
X52928434Y-88303349D01*
X52961537Y-88299143D01*
X52995128Y-88296589D01*
X53029166Y-88295728D01*
X59114582Y-88295728D01*
X59114582Y-88560311D01*
G37*
G36*
X52500000Y-92000000D02*
G01*
X45885417Y-92000000D01*
X45858186Y-91999312D01*
X45831312Y-91997268D01*
X45804830Y-91993903D01*
X45778771Y-91989250D01*
X45753170Y-91983341D01*
X45728059Y-91976211D01*
X45703471Y-91967891D01*
X45679441Y-91958417D01*
X45656001Y-91947820D01*
X45633184Y-91936134D01*
X45611025Y-91923393D01*
X45589555Y-91909629D01*
X45568808Y-91894876D01*
X45548818Y-91879167D01*
X45529617Y-91862535D01*
X45511239Y-91845014D01*
X45493718Y-91826636D01*
X45477086Y-91807436D01*
X45461377Y-91787446D01*
X45446623Y-91766699D01*
X45432859Y-91745229D01*
X45420118Y-91723069D01*
X45408432Y-91700253D01*
X45397835Y-91676812D01*
X45388360Y-91652782D01*
X45380040Y-91628194D01*
X45372910Y-91603083D01*
X45367001Y-91577481D01*
X45362347Y-91551422D01*
X45358982Y-91524939D01*
X45356939Y-91498065D01*
X45356250Y-91470833D01*
X45356939Y-91443602D01*
X45358982Y-91416728D01*
X45362347Y-91390245D01*
X45367001Y-91364186D01*
X45372910Y-91338584D01*
X45380040Y-91313473D01*
X45388360Y-91288885D01*
X45397835Y-91264855D01*
X45408432Y-91241414D01*
X45420118Y-91218598D01*
X45432859Y-91196438D01*
X45446623Y-91174968D01*
X45461377Y-91154221D01*
X45477086Y-91134231D01*
X45493718Y-91115031D01*
X45511239Y-91096653D01*
X45529617Y-91079132D01*
X45548818Y-91062500D01*
X45568808Y-91046791D01*
X45589555Y-91032038D01*
X45611025Y-91018274D01*
X45633184Y-91005533D01*
X45656001Y-90993847D01*
X45679441Y-90983250D01*
X45703471Y-90973776D01*
X45728059Y-90965457D01*
X45753170Y-90958326D01*
X45778771Y-90952417D01*
X45804830Y-90947764D01*
X45831312Y-90944399D01*
X45858186Y-90942356D01*
X45885417Y-90941667D01*
X52500000Y-90941667D01*
X52500000Y-92000000D01*
G37*
G36*
X52500000Y-99024687D02*
G01*
X45885417Y-99024687D01*
X45858186Y-99023999D01*
X45831312Y-99021955D01*
X45804830Y-99018590D01*
X45778771Y-99013937D01*
X45753170Y-99008028D01*
X45728059Y-99000898D01*
X45703471Y-98992578D01*
X45679441Y-98983104D01*
X45656001Y-98972507D01*
X45633184Y-98960821D01*
X45611025Y-98948080D01*
X45589555Y-98934316D01*
X45568808Y-98919563D01*
X45548818Y-98903854D01*
X45529617Y-98887222D01*
X45511239Y-98869701D01*
X45493718Y-98851324D01*
X45477086Y-98832123D01*
X45461377Y-98812133D01*
X45446623Y-98791386D01*
X45432859Y-98769916D01*
X45420118Y-98747757D01*
X45408432Y-98724940D01*
X45397835Y-98701500D01*
X45388360Y-98677469D01*
X45380040Y-98652882D01*
X45372910Y-98627770D01*
X45367001Y-98602169D01*
X45362347Y-98576110D01*
X45358982Y-98549626D01*
X45356939Y-98522753D01*
X45356250Y-98495521D01*
X45356939Y-98468289D01*
X45358982Y-98441416D01*
X45362347Y-98414932D01*
X45367001Y-98388873D01*
X45372910Y-98363271D01*
X45380040Y-98338160D01*
X45388360Y-98313573D01*
X45397835Y-98289542D01*
X45408432Y-98266102D01*
X45420118Y-98243285D01*
X45432859Y-98221125D01*
X45446623Y-98199655D01*
X45461377Y-98178909D01*
X45477086Y-98158919D01*
X45493718Y-98139718D01*
X45511239Y-98121341D01*
X45529617Y-98103819D01*
X45548818Y-98087188D01*
X45568808Y-98071478D01*
X45589555Y-98056725D01*
X45611025Y-98042961D01*
X45633184Y-98030220D01*
X45656001Y-98018534D01*
X45679441Y-98007937D01*
X45703471Y-97998463D01*
X45728059Y-97990144D01*
X45753170Y-97983013D01*
X45778771Y-97977104D01*
X45804830Y-97972451D01*
X45831312Y-97969086D01*
X45858186Y-97967042D01*
X45885417Y-97966354D01*
X52500000Y-97966354D01*
X52500000Y-99024687D01*
G37*
G36*
X72370990Y-94514124D02*
G01*
X72397872Y-94516168D01*
X72424362Y-94519533D01*
X72450427Y-94524186D01*
X72476034Y-94530095D01*
X72501149Y-94537225D01*
X72525740Y-94545545D01*
X72549772Y-94555019D01*
X72573214Y-94565616D01*
X72596031Y-94577302D01*
X72618191Y-94590043D01*
X72639661Y-94603807D01*
X72660406Y-94618560D01*
X72680395Y-94634269D01*
X72699593Y-94650901D01*
X72717968Y-94668422D01*
X72735487Y-94686800D01*
X72752116Y-94706000D01*
X72767822Y-94725990D01*
X72782572Y-94746737D01*
X72796332Y-94768207D01*
X72809070Y-94790367D01*
X72820753Y-94813183D01*
X72831346Y-94836624D01*
X72840818Y-94860654D01*
X72849134Y-94885241D01*
X72856262Y-94910353D01*
X72862168Y-94935955D01*
X72866820Y-94962014D01*
X72870184Y-94988497D01*
X72872226Y-95015371D01*
X72872915Y-95042602D01*
X72872226Y-95069834D01*
X72870184Y-95096708D01*
X72866820Y-95123191D01*
X72862168Y-95149250D01*
X72856262Y-95174852D01*
X72849134Y-95199964D01*
X72840818Y-95224551D01*
X72831346Y-95248582D01*
X72820753Y-95272022D01*
X72809070Y-95294839D01*
X72796332Y-95316998D01*
X72782572Y-95338468D01*
X72767822Y-95359215D01*
X72752116Y-95379205D01*
X72735487Y-95398406D01*
X72717968Y-95416783D01*
X72699593Y-95434304D01*
X72680395Y-95450936D01*
X72660406Y-95466645D01*
X72639661Y-95481398D01*
X72618191Y-95495162D01*
X72596031Y-95507903D01*
X72573214Y-95519589D01*
X72549772Y-95530186D01*
X72525740Y-95539660D01*
X72501149Y-95547980D01*
X72476034Y-95555110D01*
X72450427Y-95561019D01*
X72424362Y-95565672D01*
X72397872Y-95569037D01*
X72370990Y-95571081D01*
X72343749Y-95571769D01*
X65729165Y-95571769D01*
X65729165Y-94513436D01*
X72343749Y-94513436D01*
X72370990Y-94514124D01*
G37*
M02*
