M48
; DRILL file {KiCad 8.0.8} date 2025-05-01T19:10:30-0400
; FORMAT={-:-/ absolute / inch / decimal}
; #@! TF.CreationDate,2025-05-01T19:10:30-04:00
; #@! TF.GenerationSoftware,Kicad,Pcbnew,8.0.8
; #@! TF.FileFunction,Plated,1,2,PTH
FMAT,2
INCH
; #@! TA.AperFunction,Plated,PTH,ComponentDrill
T1C0.0295
; #@! TA.AperFunction,Plated,PTH,ComponentDrill
T2C0.0315
; #@! TA.AperFunction,Plated,PTH,ComponentDrill
T3C0.0354
; #@! TA.AperFunction,Plated,PTH,ComponentDrill
T4C0.0433
%
G90
G05
T1
X2.3516Y-5.4921
X2.4016Y-5.4421
X2.4516Y-5.4921
X3.7689Y-3.8098
X3.7689Y-5.2862
X3.8189Y-3.7598
X3.8189Y-5.2362
X3.8689Y-3.8098
X3.8689Y-5.2862
T2
X2.724Y-3.6004
X2.724Y-3.7598
X2.724Y-3.9193
X2.724Y-4.0787
X2.724Y-4.2382
X2.724Y-4.3976
X2.724Y-4.5571
X2.724Y-4.7165
X2.724Y-4.876
X3.024Y-3.6004
X3.024Y-3.7598
X3.024Y-3.9193
X3.024Y-4.0787
X3.024Y-4.2382
X3.024Y-4.3976
X3.024Y-4.5571
X3.024Y-4.7165
X3.024Y-4.876
T3
X2.3514Y-3.7106
X2.3514Y-4.7441
X2.4514Y-3.7106
X2.4514Y-4.7441
X2.7362Y-5.4724
X2.8362Y-5.4724
X4.0929Y-3.7992
X4.0929Y-5.2756
X4.1929Y-3.7992
X4.1929Y-5.2756
T4
X1.8504Y-3.435
X1.8504Y-3.6122
X1.8504Y-3.8091
X1.8504Y-3.9862
X1.8504Y-4.439
X1.8504Y-4.6161
X1.8504Y-4.813
X1.8504Y-4.9902
X1.8504Y-5.374
X1.8504Y-5.5512
X2.1063Y-3.435
X2.1063Y-3.6122
X2.1063Y-3.8091
X2.1063Y-3.9862
X2.1063Y-4.439
X2.1063Y-4.6161
X2.1063Y-4.813
X2.1063Y-4.9902
X2.1063Y-5.374
X2.1063Y-5.5512
X3.2972Y-3.5138
X3.2972Y-3.6909
X3.2972Y-3.8878
X3.2972Y-4.065
X3.2972Y-5.0098
X3.2972Y-5.187
X3.2972Y-5.3839
X3.2972Y-5.561
X3.5531Y-3.5138
X3.5531Y-3.6909
X3.5531Y-3.8878
X3.5531Y-4.065
X3.5531Y-5.0098
X3.5531Y-5.187
X3.5531Y-5.3839
X3.5531Y-5.561
M30
